<?xml version="1.0" encoding="utf-8"?>
<!-- Generator: Adobe Illustrator 25.2.1, SVG Export Plug-In . SVG Version: 6.00 Build 0)  -->
<svg version="1.1" id="_x35_0c1f3d6-3596-4f78-a680-84ef08523434"
	 xmlns="http://www.w3.org/2000/svg" xmlns:xlink="http://www.w3.org/1999/xlink" x="0px" y="0px" viewBox="0 0 1086.8 789.3"
	 style="enable-background:new 0 0 1086.8 789.3;" xml:space="preserve">
<style type="text/css">
	.st0{opacity:0.2;fill:#30A2C2;enable-background:new    ;}
	.st1{opacity:0.5;}
	.st2{fill:#30A2C2;}
	.st3{fill:none;stroke:#535461;stroke-width:2;stroke-miterlimit:10;}
	.st4{opacity:0.1;fill:#30A2C2;enable-background:new    ;}
	.st5{fill:#FFFFFF;}
	.st6{opacity:0.2;fill:#F5F5F5;enable-background:new    ;}
	.st7{fill:url(#SVGID_1_);}
	.st8{fill:#535461;}
	.st9{fill:#F1F1F4;}
	.st10{fill:#E6E8EC;}
	.st11{opacity:0.1;enable-background:new    ;}
	.st12{fill:url(#SVGID_2_);}
	.st13{fill:url(#SVGID_3_);}
	.st14{fill:#F7C4A7;}
	.st15{opacity:5.000000e-02;enable-background:new    ;}
	.st16{fill:url(#SVGID_4_);}
	.st17{fill:#DDDBE2;}
	.st18{fill:url(#SVGID_5_);}
	.st19{fill:#FDC2CC;}
	.st20{fill:url(#SVGID_6_);}
</style>
<path class="st0" d="M153.4,43.6c-8.1-0.2-16.3,0-23.9,2.3c-20.6,6.3-30.3,27-27.1,44.9s16.2,33.4,29.7,47.7s28.2,28.3,35.6,45.3
	c3.7,8.5,5.4,18,1.7,26.5c-5.8,13.1-23.3,20.4-40.1,21.9s-33.6-1.4-50.5-2.4c-7.1-0.4-14.3-0.5-21,1.5c-7.3,2.1-13.4,6.3-19,10.8
	C16.9,259.3-0.6,283,2.3,307.9c3.2,28.2,31.7,50.5,63,62.5c10.4,4,21.3,7.2,30.4,12.8c24,14.9,29.4,42.9,27,67.6s-10.5,49.5-6,73.9
	c5.3,28.5,28.9,54.2,60.7,66.2c28.4,10.7,63.8,10,89-5.1c12.3-7.4,21.5-17.6,29.6-28.2c12-15.7,21.9-32.8,29.5-51
	c3.5-8.5,6.8-17.6,15-23.5c5-3.6,11.5-5.7,17.9-7.2c19.3-4.8,39.7-6.1,59.2-10.3s39.1-12.1,49.7-26.3c15-20,8-45.6,8.1-69.1
	c0.1-53.7,39.1-101.7,53.5-154c4.7-17.1,6.5-36-4-51.2c-7.1-10.4-19.2-17.8-31.8-23.6c-27.8-12.7-59.4-18.3-90.5-23.8
	c-43.2-7.6-95.7-8.6-129.2-33.4C241.2,60.5,197.2,43.6,153.4,43.6z"/>
<g class="st1">
	<path class="st2" d="M27.3,349.4c-2.1,3.2-3.9,7.8-1.1,13.1c5.5,10.5,19.1,8.3,25.7,18.4c1.8,2.8,2.8,6,2.8,9.3
		c0.2,5.7-1.5,10.2-2.4,15.2c-1.2,5.9-0.3,12,2.6,17.3c3.2,5.5,8.1,9.9,14,12.5c5.1,2.3,10,2.8,14.9,3.9c6.1,1.4,12,3.4,17.7,6
		c2.7,1.1,5.2,2.6,7.5,4.4c2.8,2.5,5.4,5.2,7.6,8.2L138,484c2.7,3.5,5.7,6.8,9,9.8c3.6,2.9,7.5,5.3,11.7,7.2
		c8.5,4.2,17.4,8.6,24.7,8.1s12.5-7.6,9-17.5c-3.3-9.5-12.6-17.4-16.8-26.9c-6.6-14.9,2.1-26-3.5-40.9c-5.3-14.3-20.3-23.9-29.9-37
		c-6.9-9.3-10.7-20.1-16.9-29.9c-9-14-22.4-24.7-35-30.1c-11.1-4.7-23.2-6.4-35.2-4.9c-4.6,0.5-9.1,1.4-12.3,4.1
		c-3.4,2.9-3,8.3-5.2,12.2C35.1,342.6,30.2,345.1,27.3,349.4z"/>
	<path class="st3" d="M40.7,329.2c0,0,106.5,99.6,149.4,177.1"/>
	<path class="st3" d="M26.6,363.1c0,0,42.5-8.3,72,24.9"/>
	<path class="st3" d="M56.9,425.6c0,0,47-32.9,63.3-13.8"/>
	<path class="st3" d="M90.2,326.5c0,0-4.9,25.2,12.9,66.3"/>
	<path class="st3" d="M172.1,424.2c0,0-4.2,16.5-37.6,4.4"/>
	<path class="st3" d="M138.1,481.9c0,0,20.4-23.6,11.1-35.2"/>
</g>
<path class="st2" d="M7.3,233.9c-5,5.9-9.7,14.1-6,22.2c7.1,15.8,33.3,8.1,42.6,22.8c2.8,4.4,3.2,9.8,2.5,14.6
	c-1.3,9.4-5.9,17.4-9.1,26s-4.9,19-0.3,28.1c4.4,8.8,13.6,14.3,22.5,16.5s17.9,1.7,26.8,2c10.6,0.4,21.1,2,31.4,4.6
	c4.5,1,8.8,2.8,12.8,5.1c4.6,2.9,8.2,7.2,11.8,11.4l32,37.3c4.2,5,8.6,10,13.9,13.7c6.1,4.2,13,6.4,19.8,8.5c14.6,4.5,30,9,44,5.9
	s25.8-16.5,22.2-31.9c-3.3-14.8-18.4-25.2-23.4-39.7c-8-22.8,11.8-43.9,5.8-67.1c-5.7-22.2-30.9-33.7-44.9-52.5
	c-10-13.5-13.9-30.3-22.7-44.7c-12.6-20.7-34.6-34.4-56.5-39.6s-43.9-2.8-64.5,2.4c-8.7,2.2-17.4,5-24.3,10.5
	c-7.3,5.9-8.2,14.8-13.5,21.9C24,220.2,14.1,225.9,7.3,233.9z"/>
<path class="st3" d="M38.5,196.3c0,0,169.7,133.5,226.8,249.6"/>
<path class="st3" d="M1.9,256.9c0,0,82.4-26.6,127.5,19.7"/>
<path class="st3" d="M39.7,351.9c0,0,98.1-69,122.9-42.1"/>
<path class="st3" d="M132.3,176.8c0,0-16.9,43.4,4,106.5"/>
<path class="st3" d="M256.3,314.6c0,0-12.8,28.7-71.9,18.7"/>
<path class="st3" d="M175.1,421c0,0,45.5-45.5,31.6-62"/>
<ellipse class="st4" cx="618" cy="647.2" rx="465" ry="124.5"/>
<g>
	<g>
		<g>
			<path class="st5" d="M691,691.1c-0.1-0.3-0.2-0.6-0.3-0.8c-0.1-0.3-0.2-0.5-0.3-0.8c-0.8-1.4-2.1-2-3.8-2.2
				c-2.1-0.3-4.1,0-6.1,0.6c-2.2,0.7-4.2,1.6-6.2,2.6c-5.6,2.9-10.7,6.5-15.2,10.6c-0.5,0.5-1.1,1-1.8,1.3
				c-3.6,1.7-7.2,3.3-11.1,4.5c-3,0.9-6.2,1.7-9.4,1.8c-1.3,0.1-2.6,0-3.8-0.5c-1.4-0.6-1.7-1.1-1.7-2.3c0-0.9,0.2-1.7,0.6-2.6
				c0.2-0.5,0.5-0.8,1.1-1c0.7-0.2,1.4-0.4,2-0.7c3.7-1.6,6.8-3.7,9.8-6.2c1-0.9,1.9-1.8,2.6-2.9c0.5-0.8,0.8-1.6,0.7-2.5
				c-0.1-0.8-0.5-1.3-1.3-1.6c-0.7-0.3-1.5-0.3-2.3-0.2c-1.1,0.2-2.2,0.5-3.2,1.1c-1.1,0.6-2.1,1.2-3.2,1.9c-1.6,1-2.9,2.2-4.3,3.4
				c-0.5,0.5-1.1,0.8-1.8,1c-1,0.3-2,0.6-3,0.8c-3.2,0.8-6.4,1.4-9.7,1.8c-3,0.4-6,0.6-9.1,0.4c-1.7-0.1-3.1-0.6-4.3-1.7
				c-0.6-0.5-1.2-1-1.9-1.3c-0.5-0.3-1.1-0.5-1.7-0.6c-1.1-0.1-2.3-0.3-3.4,0.1c-0.3,0.1-0.6,0.2-0.9-0.2c0.1-0.1,0.1-0.3,0.2-0.5
				c0.4-0.6,0.9-1.2,1.3-1.8c2-2.8,4-5.5,6-8.3c0.5-0.7,0.9-1.6,1.3-2.4c0.1-0.3,0.2-0.6,0.2-0.9c0.2-1.4-1.7-2.5-3.2-1.9
				c-0.6,0.3-1.1,0.6-1.5,1c-2.4,2.4-4.6,4.9-6.6,7.7c-0.3,0.5-0.6,1-0.7,1.5c-0.1,0.6-0.5,1.1-0.9,1.6c-2,2.4-3.9,4.8-5.9,7.2
				c-3.5,4.2-7,8.5-10.5,12.7c-0.5,0.6-1,1.2-1.4,1.9c-0.9,1.4-0.3,2.8,1.5,3.4c0.4,0.1,0.8,0.2,1.2,0.2c0.7-0.1,1.4-0.4,1.9-0.9
				c0.4-0.4,0.8-0.8,1.2-1.2c1.2-1.4,2.3-2.8,3.5-4.1c2.8-3.2,6-6,9.4-8.5c1-0.8,2.2-1.5,3.3-2.2c0.7-0.4,1.4-0.8,2.2-0.9
				c0.7,0.2,1.1,0.6,1.6,0.9c0.5,0.4,1,0.8,1.6,1.2c1.2,0.7,2.4,1.3,3.9,1.4c2.9,0.1,5.7,0.2,8.6-0.2c2.4-0.3,4.8-0.6,7.2-1.2
				c1.6-0.4,3.1-0.8,4.6-1.1c0.3-0.1,0.6-0.2,0.9,0.1c-0.1,0.3-0.2,0.5-0.4,0.8c-0.3,0.7-0.7,1.4-1,2.1c-0.6,1.3-0.7,2.7-0.5,4.1
				c0.3,1.5,1.1,2.7,2.5,3.5c1.5,0.9,3.2,1.3,4.9,1.4c2.2,0.1,4.3-0.2,6.4-0.6c3.6-0.8,7.1-2.1,10.4-3.6c0.7-0.3,1.4-0.6,2.1-0.9
				c0.2-0.1,0.4-0.1,0.7-0.1c0,0.2,0,0.4,0,0.5c-0.3,0.9-0.2,1.7-0.2,2.6c0,1,0.6,1.6,1.6,2c0.9,0.3,1.8,0.5,2.7,0.2
				c1-0.3,1.9-0.6,2.8-0.9c2.8-1.1,5.4-2.6,7.9-4.1c4.5-2.8,9.1-5.6,13.6-8.4c1.5-0.9,2.9-1.8,4.4-2.7c0.2-0.2,0.5-0.4,0.9-0.2
				c0,0.5-0.3,0.9-0.5,1.3c-0.8,1.6-1.3,3.3-1.1,5.1c0.2,2.5,2,4.3,4.7,5c1.8,0.4,3.6,0.3,5.3,0.1c1.6-0.2,3-0.6,4.5-1.2
				c3.4-1.3,6.6-2.8,9.8-4.4c1.7-0.8,3.3-1.7,5-2.6c0.2-0.1,0.5-0.3,0.8,0.1c-0.2,0.3-0.3,0.7-0.5,1c-1.3,2.3-2.7,4.5-4,6.8
				c-2.8,4.8-5.5,9.7-8.2,14.6c-3.1,5.6-6,11.3-8.5,17c-1.2,2.7-2.3,5.4-3.1,8.3c-0.6,2.2-0.7,4.3-0.4,6.5c0.3,2.6,2.8,3.7,4.9,3.8
				c2.3,0,4.3-0.6,6.4-1.4c0.9-0.4,1.2-1,1.2-1.9c-0.1-1-0.6-1.5-1.8-1.6c-0.8,0-1.6,0-2.4,0.3c-0.8,0.3-1.6,0.5-2.4,0.1
				c0-0.2-0.1-0.5-0.1-0.7c0.1-0.9,0.2-1.7,0.5-2.6c0.7-2.6,1.9-5,3-7.4c2.9-6.1,6.2-12.1,9.6-18.1c4.5-7.8,9.1-15.5,14-23.1
				c4.2-6.7,8.6-13.2,13.1-19.8c8.7-12.5,17.7-24.8,26.9-37c6.4-8.6,13-17.2,19.4-25.8c2.7-3.6,5.2-7.2,7.7-10.9c1-1.5,2-3,2.2-4.7
				c0-0.1,0-0.2,0.1-0.2c0.1-0.3,0.4-0.5,0.8-0.6c1-0.1,2-0.2,3-0.3c1.4-0.1,2.8-0.2,4.1-0.3c1.1-0.1,2.1-0.2,3.2-0.3
				c1.6-0.1,3.1-0.3,4.7-0.4c1.7-0.1,3.3-0.1,5-0.3c2.4-0.2,4.8-0.4,7.2-0.5c0.1,0,0.2,0,0.3,0c1.9-0.1,3.8-0.3,5.8-0.4
				c2.3-0.1,4.5-0.2,6.8-0.3c0.1,0,0.2,0,0.3,0c2.3-0.1,4.7-0.3,7-0.4c1.7-0.1,3.3-0.1,5-0.2c2.9-0.2,5.8-0.2,8.7-0.3
				c1.5,0,3,0,4.4,0c1.4,0,2.8-0.2,4.1-0.2c6.9,0,13.8,0,20.7,0c4.3,0,8.7,0.2,13,0.3c1.3,0,2.6,0.2,3.9,0.2c0.1,0,0.2,0,0.3,0
				c1.4,0.1,2.7,0.3,4.1,0.4c1.9,0.2,3.7,0.5,5.5,1c0.3,0.1,0.7,0.2,1,0.4c0.7,0.3,0.8,0.7,0.3,1.2c-0.1,0.1-0.3,0.2-0.4,0.3
				c-0.7,0.7-1.6,1.2-2.5,1.7c-0.5,0.3-1,0.6-1.5,1c-0.3,0.3-0.4,0.6-0.2,1c0.2,0.4,0.5,0.6,1,0.7c0.5,0.1,1-0.1,1.5-0.3
				c1.6-0.7,3.1-1.5,4.4-2.6c0.3-0.3,0.6-0.5,0.8-0.8c0.9-1,1-2.8-0.3-3.9c-0.6-0.5-1.3-0.9-2-1.2c-0.8-0.3-1.6-0.5-2.3-0.7
				c-3.1-0.8-6.3-1.2-9.5-1.4c-3.2-0.2-6.3-0.4-9.5-0.5c-3.9-0.2-7.7-0.3-11.6-0.3c-8.4,0-16.8-0.1-25.2,0.2
				c-2.4,0.1-4.8,0.1-7.2,0.1c-3.3,0.1-6.6,0.3-9.9,0.4c-2.9,0.1-5.8,0.2-8.7,0.3c-2.6,0.1-5.1,0.3-7.7,0.4
				c-3.3,0.2-6.6,0.3-9.9,0.5c-1.4,0.1-2.8,0.2-4.3,0.3c-1.9,0.1-3.8,0.3-5.6,0.4c-2.6,0.2-5.1,0.3-7.7,0.5
				c-2.4,0.2-4.9,0.4-7.3,0.6c-3.1,0.3-6.2,0.5-9.4,0.8c-2.8,0.3-5.6,0.6-8.4,0.9c-4.2,0.5-8.3,0.9-12.5,1.4c-5,0.6-9.9,1.3-14.9,2
				c-6.4,1-12.8,2-19.1,3.3c-7.5,1.5-14.8,3.2-22.1,5.3c-3.9,1.1-7.9,2.3-11.6,3.8c-1.5,0.6-2.9,1.3-4.2,2c-0.8,0.4-1.5,1-2.1,1.7
				c-1.2,1.4,0,3.3,1.7,3.3c1.4,0,2.8,0,4.1-0.1c2.5-0.3,4.9-0.8,7.3-1.3c2-0.5,4-1.1,6.1-1.6c0.5-0.1,0.9-0.4,1.3-0.7
				c0.1-0.1,0.2-0.4,0.1-0.5c-0.1-0.2-0.3-0.3-0.6-0.2c-0.7,0.1-1.4,0.2-2,0.4c-2.6,0.7-5.2,1.1-7.8,1.4c-0.7,0.1-1.5,0.1-2.2,0.2
				c-0.3,0-0.7,0-0.8-0.4c0.4-0.2,0.8-0.3,1.2-0.5c2.3-0.7,4.6-1.5,6.9-2.1c5.4-1.5,10.9-2.9,16.4-4.1c5-1,9.9-2,14.9-3
				c3.5-0.7,6.9-1.2,10.4-1.8c2.8-0.5,5.6-0.9,8.4-1.3c1.9-0.3,3.7-0.5,5.6-0.8c2-0.3,4.1-0.6,6.1-0.8c2.2-0.3,4.5-0.5,6.7-0.8
				c2.9-0.3,5.7-0.6,8.6-0.9c1-0.1,1.9-0.2,2.9-0.3c1-0.1,2.1-0.3,3.1-0.4c0.6-0.1,1.2-0.1,1.8-0.2c0.5,0,0.7,0.2,0.6,0.6
				c-0.1,0.4-0.3,0.8-0.5,1.1c-0.4,0.8-0.9,1.6-1.4,2.3c-3,4.5-6.3,8.9-9.7,13.3c-4.2,5.4-8.4,10.8-12.5,16.3
				c-7.5,9.9-14.8,19.8-21.8,30c-6.3,9-12.3,18.2-18.1,27.4c-0.4,0.7-1,1.3-1.8,1.8c-4.9,2.9-10.2,5.3-15.7,7.2
				c-1.9,0.6-3.8,1.1-5.9,1.2c-1.1,0-2.1,0-3.1-0.2c-1.3-0.3-1.8-0.9-1.7-2.1c0.1-0.5,0.2-1.1,0.5-1.6c0.6-1.4,1.2-2.8,1.8-4.2
				c0.3-0.7,0.6-1.4,0.8-2.1c0.1-0.5,0.2-1,0.1-1.5c-0.1-0.8-0.7-1.3-1.6-1.3c-0.4,0-0.8,0-1.2,0.1C691.7,691,691.4,691,691,691.1z
				 M602.6,602.8c0-1-0.1-1.9-0.2-2.9c0-0.3-0.1-0.6-0.2-0.8c-0.7-1.8-2-3.3-4-4.2c-1.9-0.9-3.9-1.1-6-0.9c-1.6,0.2-3.2,0.5-4.7,0.8
				c-4.5,1-8.7,2.7-12.7,4.5c-6.6,3-12.7,6.6-18.7,10.4c-9.2,5.9-17.8,12.3-26,19.3c-5.4,4.6-10.7,9.3-15.6,14.4
				c-7.5,7.7-14.6,15.6-21.1,24c-6.3,8.2-11.8,16.7-16.3,25.7c-1.8,3.5-3.3,7.1-4.4,10.9c-1,3.3-1.7,6.7-1.6,10.1
				c0,2.1,0.4,4.1,0.8,6.1c0.4,2.1,1.8,3.7,3.8,4.9c1.2,0.7,2.4,1.2,3.7,1.6c1,0.3,2.1,0.5,3.2,0.5c0.7,0,1.5,0,2.2,0
				c2.3,0.1,4.6-0.3,6.8-0.9c4.2-1.1,8.1-2.7,11.9-4.4c6.2-2.8,12.1-6,17.8-9.4c6.3-3.8,12.5-7.7,18.7-11.7
				c6.6-4.3,13.1-8.6,19.5-13.1c6.2-4.3,12.3-8.7,18.4-13.1c1-0.7,2.1-1.5,3.1-2.2c0.4-0.2,0.7-0.5,1.2-0.6c0.8-0.3,1.4,0,1.5,0.7
				c0.1,0.2,0.1,0.5,0.1,0.7c-0.1,0.9-0.1,1.9-0.3,2.8c-0.5,2.5-1.3,4.9-2.2,7.2c-2.6,6.9-6.2,13.5-10.2,19.9
				c-3.1,4.9-6.5,9.7-10,14.4c-0.6,0.8-1.3,1.4-2.3,1.8c-3.7,1.4-7.3,3.1-10.8,4.8c-9.3,4.5-17.9,9.9-25.7,16.2
				c-1.9,1.6-3.7,3.3-5.4,5.1c-1.1,1.3-2.2,2.7-2.8,4.2c-0.4,0.9-0.6,1.8-0.5,2.7c0.2,1.7,1.2,2.9,3.1,3.5c1.3,0.4,2.6,0.4,4,0.2
				c2.2-0.3,4.2-1.1,6.2-2c4.5-2,8.5-4.6,12.3-7.5c6.1-4.5,11.4-9.7,16.3-15.2c4.4-5,8.5-10.2,12.3-15.5c3.2-4.6,6.3-9.3,9-14.1
				c2.3-3.9,4.3-7.9,6-12c1.8-4.3,3.4-8.6,3.9-13.2c0.1-1.3,0.1-2.6-0.2-3.9c-0.1-0.5-0.4-1-0.7-1.5c-0.4-0.6-1-0.9-1.8-0.9
				c-0.8,0-1.7,0.1-2.4,0.5c-0.5,0.2-1.1,0.5-1.5,0.8c-1.4,0.9-2.8,1.8-4.2,2.7c-3.8,2.5-7.5,5-11.3,7.5
				c-11.6,7.7-23.3,15.3-35.3,22.6c-7.5,4.6-15.2,9-23.3,12.8c-3.3,1.6-6.7,3-10.2,4.2c-2.8,0.9-5.6,1.7-8.7,2
				c-1.6,0.2-3.1,0.1-4.7-0.2c-1.5-0.3-2.8-0.9-3.8-2.1c-0.6-0.7-1-1.4-1.3-2.2c-0.5-1.3-0.8-2.7-0.8-4.1c0-2.7,0.5-5.3,1.2-7.9
				c1.3-4.6,3.2-9.1,5.5-13.4c3-5.8,6.4-11.3,10.2-16.8c6-8.7,12.8-16.9,20.1-24.8c8-8.7,16.7-16.8,26-24.5
				c7.9-6.5,16.2-12.5,25.1-18c5.4-3.3,10.9-6.3,16.9-8.8c2.7-1.2,5.5-2.1,8.5-2.8c1.6-0.4,3.3-0.4,4.9-0.4c0.3,0,0.6,0.1,0.9,0.2
				c1.8,0.5,2.6,1.7,2.9,3.2c0.5,2.5,0.3,5.1-0.4,7.6c-1.5,5.3-3.8,10.4-6.6,15.4c-3.6,6.3-7.8,12.3-12.4,18.1
				c-4,5-8.2,9.8-12.7,14.4c-0.8,0.9-1.6,1.7-2.4,2.6c-0.3,0.3-0.5,0.7-0.6,1.1c-0.2,0.5,0.3,0.9,0.9,0.7c0.6-0.1,1.1-0.4,1.5-0.8
				c1.2-1.3,2.4-2.5,3.6-3.8c3.5-3.6,6.8-7.3,10-11.1c5.3-6.4,10.3-13,14.5-20c2.7-4.6,5.1-9.3,6.8-14.2
				C601.9,608.4,602.7,605.6,602.6,602.8z M812.7,702.8c0.1,0.1,0.2,0.2,0.2,0.2c0,0.2,0,0.3,0,0.5c-0.5,1.1-0.4,2.3-0.2,3.4
				c0.2,1.5,1.1,2.8,2.6,3.6c1.4,0.8,3,1.2,4.7,1.3c1.8,0.1,3.6-0.1,5.4-0.3c3.7-0.6,7.1-1.9,10.5-3.3c5.4-2.3,10.4-5.1,15.2-8.2
				c1.2-0.8,2.4-1.6,3.6-2.4c0.4-0.2,0.7-0.5,1-0.9c0.3-0.4,0-0.8-0.5-0.8c-0.2,0-0.4,0-0.5,0.1c-0.5,0.2-1.1,0.4-1.6,0.7
				c-1.3,1.1-2.9,1.9-4.5,2.8c-3.1,1.7-6.3,3.3-9.6,4.7c-2.8,1.2-5.7,2.4-8.8,3.2c-2.6,0.7-5.1,1.3-7.8,1.4c-1.3,0-2.6,0-3.8-0.5
				c-1-0.4-1.6-1-1.7-2c0-0.3,0-0.6,0-0.8c0.2-0.7,0.4-1.4,0.6-2.1c0.1-0.5,0.5-0.8,1.1-1c0.7-0.2,1.5-0.5,2.2-0.8
				c1.1-0.5,2.1-1,3.1-1.6c2.7-1.5,5.2-3.3,7.4-5.4c0.9-0.8,1.6-1.8,2.2-2.9c0.3-0.6,0.4-1.1,0.3-1.7c-0.1-0.8-0.6-1.3-1.4-1.6
				c-0.7-0.2-1.4-0.3-2.2-0.1c-1.6,0.3-3,0.9-4.3,1.6c-3.9,2.3-7.2,5.1-10,8.5c-0.4,0.5-0.9,1-1.6,1.3c-2.8,1.4-5.6,2.8-8.5,4.2
				c-2.7,1.3-5.5,2.3-8.5,3.2c-2.8,0.8-5.6,1.5-8.6,1.6c-1.3,0.1-2.7,0-3.9-0.5c-1.1-0.4-1.7-1.1-1.7-2.2c0-1,0.3-1.9,0.6-2.8
				c0.1-0.5,0.5-0.7,1-0.9c0.7-0.2,1.5-0.5,2.2-0.8c3.7-1.6,6.9-3.8,9.8-6.3c0.8-0.7,1.7-1.5,2.2-2.4c0.4-0.6,0.7-1.3,0.9-2
				c0.4-1.3-0.4-2.3-1.9-2.6c-0.5-0.1-1-0.1-1.5,0c-1.5,0.2-2.9,0.8-4.2,1.5c-2.2,1.2-4.3,2.7-6,4.3c-1,0.9-2.2,1.6-3.6,1.9
				c-0.4,0.1-0.7,0.2-1.1,0.3c-4.1,1.1-8.3,1.8-12.6,2.2c-2.4,0.2-4.8,0.4-7.2,0.2c-1.7-0.1-3.1-0.6-4.3-1.7
				c-0.2-0.1-0.3-0.3-0.5-0.4c-1.8-1.5-3.9-1.9-6.2-1.3c-0.4,0.1-0.7,0.2-1.1-0.1c0.1-0.2,0.1-0.4,0.3-0.6c0.3-0.5,0.7-0.9,1-1.4
				c1.8-2.4,3.5-4.7,5.2-7.1c0.7-1,1.3-2,2-3c0.4-0.6,0.5-1.2,0.6-1.8c0.1-1.6-2.2-2.4-3.4-1.7c-0.5,0.3-0.9,0.6-1.2,0.9
				c-2.4,2.4-4.7,5-6.6,7.7c-0.3,0.4-0.6,0.8-0.7,1.3c-0.2,0.7-0.5,1.3-1,1.8c-2.6,3.2-5.3,6.4-7.9,9.6c-2.9,3.6-5.9,7.1-8.8,10.7
				c-0.5,0.6-0.9,1.2-1.3,1.8c-0.1,0.2-0.2,0.5-0.2,0.8c0.1,1.5,2.4,2.9,3.9,2.1c0.6-0.3,1.1-0.5,1.5-1c1-1.2,2.1-2.3,3.1-3.5
				c2.8-3.5,6.1-6.5,9.8-9.3c1-0.8,2.1-1.5,3.2-2.3c0.6-0.4,1.3-0.7,2-1.1c0.8-0.4,1.5-0.4,2.2,0.2c0.5,0.4,0.9,0.8,1.4,1.1
				c1.6,1.1,3.3,1.9,5.4,1.9c2.6,0,5.2,0.1,7.9-0.2c2-0.3,4-0.5,6-0.9c2-0.4,3.9-0.9,5.9-1.4c0.2-0.1,0.5,0,0.8,0
				c0.1,0.5-0.2,0.7-0.3,1.1c-0.4,0.8-0.7,1.6-1.1,2.4c-0.4,1-0.5,2-0.4,3c0.2,2,1.2,3.5,3.3,4.5c1.2,0.6,2.6,0.9,4,1
				c1.8,0.1,3.5,0,5.2-0.3c2.3-0.4,4.5-1,6.6-1.7c3.6-1.3,7-2.9,10.3-4.6c1.3-0.7,2.6-1.4,3.9-2.1
				C812.1,703,812.4,702.9,812.7,702.8z M785.8,758.6c0.3,0,0.6,0.1,0.9,0.1c2.6,0,5.2,0,7.7,0c0.2,0,0.5,0,0.7,0
				c0.4,0,0.6-0.2,0.7-0.5c0.1-0.2,0.2-0.4,0.3-0.6c1.2-2.8,2.4-5.6,3.7-8.5c0.9-2.1,1.8-4.2,2.7-6.2c0.4-0.9,0.9-1.7,1.6-2.5
				c0.8-0.9,1.9-1.3,3.2-1.5c1.5-0.1,2.4,0.6,2.4,1.8c0,0.7-0.2,1.3-0.4,1.9c-0.8,1.9-1.6,3.8-2.4,5.7c-1.3,3-2.6,6.1-4,9.1
				c-0.1,0.3-0.4,0.6-0.2,1c0.4,0.2,0.9,0.2,1.3,0.2c2.3,0,4.6,0,6.9,0c1.7,0,1.6,0,2.2-1.3c1.6-3.7,3.2-7.4,4.8-11
				c1.2-2.7,2.3-5.3,3.5-8c0.5-1.2,0.8-2.5,0.7-3.8c-0.2-1.7-1.3-2.8-3.3-3.1c-1.6-0.2-3.1-0.2-4.7,0.2c-1.9,0.4-3.7,1.2-5.3,2.2
				c-0.7,0.4-1.3,0.9-2,1.3c-0.2,0.1-0.5,0.2-0.9,0.3c0.1-0.5,0.2-0.8,0.3-1c0.5-1.3,1.1-2.6,1.7-3.9c1.7-3.9,3.4-7.8,5.1-11.7
				c0.1-0.2,0.2-0.5,0.3-0.8c-0.4,0-0.7-0.1-1-0.1c-2.6,0-5.2,0-7.7,0c-0.2,0-0.5,0-0.7,0c-0.3,0-0.5,0.2-0.7,0.4
				c-0.1,0.2-0.2,0.4-0.3,0.5c-1.2,2.8-2.4,5.6-3.7,8.5c-2.8,6.4-5.6,12.9-8.3,19.3c-1.6,3.6-3.1,7.2-4.7,10.8
				C785.9,757.7,785.6,758,785.8,758.6z M730.1,747.4c0.5,0,1,0,1.5,0c4.8,0,9.6,0,14.4,0c1.6,0,1.6,0.1,2.1-1.3
				c0.5-1.4,1-2.8,1.4-4.2c0.4-1.4,0.5-2.8,0.4-4.2c-0.1-1.9-1-3.4-2.6-4.5c-1.2-0.9-2.6-1.4-4.2-1.7c-1.9-0.3-3.8-0.1-5.6,0.2
				c-3,0.6-5.7,1.8-8,3.6c-5.5,4.2-8.4,9.5-9.5,15.7c-0.2,1.2-0.2,2.5,0.2,3.8c0.7,2.3,2.3,3.8,5,4.5c2,0.5,4,0.5,6,0.3
				c2.1-0.2,4-0.8,5.9-1.6c3.2-1.5,5.6-3.7,7.6-6.3c0.1-0.1,0.1-0.3,0.1-0.5c-0.4,0-0.8-0.1-1.1-0.1c-1.9,0-3.8,0-5.7,0
				c-0.9,0-1.5,0.2-2,0.8c-0.4,0.5-1,0.8-1.5,1.2c-0.9,0.6-1.9,0.8-3,0.7c-1.3-0.1-2.1-0.6-2.3-1.7
				C729,750.3,729.3,748.8,730.1,747.4z M783.9,733.4c-0.2-0.2-0.2-0.3-0.3-0.3c-0.1-0.1-0.2-0.2-0.3-0.2c-2-1.3-4.3-1.8-6.8-1.6
				c-1.8,0.1-3.6,0.6-5.3,1.3c-2.3,1-4.3,2.4-6.1,4c-3.6,3.4-5.8,7.4-7.2,11.8c-0.6,1.8-0.7,3.7-0.5,5.5c0.1,0.8,0.3,1.6,0.7,2.4
				c0.8,1.4,2,2.4,3.8,2.9c1.4,0.4,2.9,0.5,4.4,0.3c2.2-0.2,4.3-0.8,6.3-1.6c0.5-0.2,0.8-0.5,1-0.9c0.7-1.8,1.5-3.5,2.2-5.2
				c0.1-0.2,0.3-0.4,0-0.6c-0.4,0.1-0.8,0.2-1.3,0.3c-1,0.3-2,0.3-3,0.2c-1.4-0.1-2.3-0.7-2.8-1.8c-0.3-0.7-0.4-1.4-0.3-2.1
				c0.4-2.1,1.3-4,2.8-5.6c0.9-1,2.1-1.8,3.4-2.4c1.7-0.7,3.5-0.9,5.3-0.2c0.3,0.1,0.6,0.2,1,0.3C782.1,737.6,783,735.5,783.9,733.4
				z"/>
			<path class="st5" d="M691,691.1c0.4-0.1,0.7-0.1,0.9-0.2c0.4,0,0.8-0.1,1.2-0.1c0.9,0,1.6,0.5,1.6,1.3c0,0.5,0,1-0.1,1.5
				c-0.2,0.7-0.5,1.4-0.8,2.1c-0.6,1.4-1.2,2.8-1.8,4.2c-0.2,0.5-0.4,1.1-0.5,1.6c-0.2,1.2,0.3,1.8,1.7,2.1c1,0.2,2.1,0.2,3.1,0.2
				c2.1,0,4-0.5,5.9-1.2c5.5-1.9,10.8-4.3,15.7-7.2c0.8-0.5,1.4-1,1.8-1.8c5.8-9.3,11.8-18.4,18.1-27.4c7-10.1,14.3-20.1,21.8-30
				c4.1-5.4,8.4-10.8,12.5-16.3c3.3-4.4,6.6-8.8,9.7-13.3c0.5-0.8,1-1.5,1.4-2.3c0.2-0.4,0.3-0.7,0.5-1.1c0.1-0.4-0.2-0.6-0.6-0.6
				c-0.6,0-1.2,0.1-1.8,0.2c-1,0.1-2.1,0.3-3.1,0.4c-1,0.1-1.9,0.2-2.9,0.3c-2.9,0.3-5.7,0.6-8.6,0.9c-2.2,0.2-4.5,0.5-6.7,0.8
				c-2,0.3-4.1,0.6-6.1,0.8c-1.9,0.3-3.7,0.5-5.6,0.8c-2.8,0.4-5.6,0.8-8.4,1.3c-3.5,0.6-7,1.2-10.4,1.8c-5,1-10,1.9-14.9,3
				c-5.5,1.2-11,2.5-16.4,4.1c-2.3,0.7-4.6,1.4-6.9,2.1c-0.4,0.1-0.8,0.3-1.2,0.5c0.1,0.4,0.5,0.4,0.8,0.4c0.7,0,1.5-0.1,2.2-0.2
				c2.6-0.3,5.3-0.7,7.8-1.4c0.7-0.2,1.3-0.3,2-0.4c0.2,0,0.5,0,0.6,0.2c0,0.2,0,0.5-0.1,0.5c-0.4,0.3-0.8,0.5-1.3,0.7
				c-2,0.6-4,1.1-6.1,1.6c-2.4,0.6-4.8,1.1-7.3,1.3c-1.4,0.1-2.8,0.1-4.1,0.1c-1.7,0-2.9-1.9-1.7-3.3c0.6-0.7,1.3-1.3,2.1-1.7
				c1.4-0.7,2.8-1.4,4.2-2c3.8-1.5,7.7-2.7,11.6-3.8c7.3-2.1,14.6-3.8,22.1-5.3c6.3-1.2,12.7-2.3,19.1-3.3c4.9-0.7,9.9-1.4,14.9-2
				c4.1-0.5,8.3-1,12.5-1.4c2.8-0.3,5.6-0.6,8.4-0.9c3.1-0.3,6.2-0.5,9.4-0.8c2.4-0.2,4.9-0.4,7.3-0.6c2.6-0.2,5.1-0.4,7.7-0.5
				c1.9-0.1,3.8-0.3,5.6-0.4c1.4-0.1,2.8-0.2,4.3-0.3c3.3-0.2,6.6-0.3,9.9-0.5c2.6-0.1,5.1-0.3,7.7-0.4c2.9-0.1,5.8-0.2,8.7-0.3
				c3.3-0.1,6.6-0.3,9.9-0.4c2.4-0.1,4.8-0.1,7.2-0.1c8.4-0.3,16.8-0.2,25.2-0.2c3.9,0,7.7,0.1,11.6,0.3c3.2,0.2,6.3,0.3,9.5,0.5
				c3.2,0.2,6.4,0.6,9.5,1.4c0.8,0.2,1.6,0.4,2.3,0.7c0.8,0.3,1.4,0.7,2,1.2c1.3,1.2,1.2,2.9,0.3,3.9c-0.2,0.3-0.5,0.6-0.8,0.8
				c-1.3,1.1-2.8,1.9-4.4,2.6c-0.5,0.2-0.9,0.3-1.5,0.3c-0.5-0.1-0.9-0.3-1-0.7c-0.2-0.4-0.1-0.7,0.2-1c0.5-0.4,1-0.7,1.5-1
				c0.9-0.5,1.8-1,2.5-1.7c0.1-0.1,0.3-0.2,0.4-0.3c0.5-0.5,0.4-0.9-0.3-1.2c-0.3-0.2-0.7-0.3-1-0.4c-1.8-0.5-3.7-0.8-5.5-1
				c-1.4-0.2-2.7-0.3-4.1-0.4c-0.1,0-0.2,0-0.3,0c-1.3-0.1-2.6-0.2-3.9-0.2c-4.3-0.1-8.7-0.3-13-0.3c-6.9,0-13.8,0-20.7,0
				c-1.4,0-2.8,0.1-4.1,0.2c-1.5,0-3,0-4.4,0c-2.9,0.1-5.8,0.1-8.7,0.3c-1.7,0.1-3.3,0.1-5,0.2c-2.3,0.1-4.7,0.3-7,0.4
				c-0.1,0-0.2,0-0.3,0c-2.3,0.1-4.5,0.2-6.8,0.3c-1.9,0.1-3.9,0.3-5.8,0.4c-0.1,0-0.2,0-0.3,0c-2.4,0-4.8,0.3-7.2,0.5
				c-1.6,0.1-3.3,0.2-5,0.3c-1.6,0.1-3.1,0.3-4.7,0.4c-1.1,0.1-2.1,0.2-3.2,0.3c-1.4,0.1-2.8,0.2-4.1,0.3c-1,0.1-2,0.2-3,0.3
				c-0.4,0-0.7,0.2-0.8,0.6c0,0.1-0.1,0.2-0.1,0.2c-0.2,1.7-1.2,3.3-2.2,4.7c-2.5,3.6-5.1,7.3-7.7,10.9
				c-6.4,8.6-12.9,17.2-19.4,25.8c-9.2,12.2-18.2,24.5-26.9,37c-4.5,6.5-8.9,13.1-13.1,19.8c-4.8,7.6-9.5,15.3-14,23.1
				c-3.4,5.9-6.7,11.9-9.6,18.1c-1.1,2.4-2.3,4.9-3,7.4c-0.2,0.8-0.3,1.7-0.5,2.6c0,0.2,0.1,0.5,0.1,0.7c0.9,0.4,1.7,0.2,2.4-0.1
				c0.8-0.3,1.6-0.3,2.4-0.3c1.2,0,1.7,0.5,1.8,1.6c0.1,0.8-0.2,1.5-1.2,1.9c-2,0.8-4.1,1.5-6.4,1.4c-2,0-4.5-1.1-4.9-3.8
				c-0.3-2.2-0.2-4.3,0.4-6.5c0.8-2.8,1.9-5.6,3.1-8.3c2.5-5.8,5.4-11.5,8.5-17c2.7-4.9,5.4-9.7,8.2-14.6c1.3-2.3,2.7-4.5,4-6.8
				c0.2-0.3,0.4-0.7,0.5-1c-0.3-0.3-0.6-0.2-0.8-0.1c-1.7,0.9-3.3,1.8-5,2.6c-3.2,1.6-6.4,3.1-9.8,4.4c-1.4,0.5-2.9,1-4.5,1.2
				c-1.8,0.2-3.6,0.3-5.3-0.1c-2.8-0.7-4.5-2.5-4.7-5c-0.1-1.8,0.3-3.5,1.1-5.1c0.2-0.4,0.5-0.8,0.5-1.3c-0.4-0.2-0.6,0-0.9,0.2
				c-1.5,0.9-2.9,1.8-4.4,2.7c-4.5,2.8-9.1,5.6-13.6,8.4c-2.5,1.5-5.1,3-7.9,4.1c-0.9,0.4-1.9,0.6-2.8,0.9c-0.9,0.3-1.8,0.1-2.7-0.2
				c-1-0.4-1.6-1-1.6-2c0-0.9-0.1-1.7,0.2-2.6c0.1-0.1,0-0.3,0-0.5c-0.3,0-0.5,0-0.7,0.1c-0.7,0.3-1.4,0.6-2.1,0.9
				c-3.3,1.5-6.7,2.8-10.4,3.6c-2.1,0.5-4.2,0.7-6.4,0.6c-1.8-0.1-3.4-0.5-4.9-1.4c-1.5-0.8-2.3-2.1-2.5-3.5
				c-0.2-1.4-0.2-2.8,0.5-4.1c0.3-0.7,0.7-1.4,1-2.1c0.1-0.3,0.3-0.6,0.4-0.8c-0.3-0.3-0.6-0.2-0.9-0.1c-1.5,0.4-3.1,0.8-4.6,1.1
				c-2.4,0.5-4.8,0.9-7.2,1.2c-2.8,0.4-5.7,0.3-8.6,0.2c-1.5,0-2.7-0.6-3.9-1.4c-0.6-0.3-1.1-0.8-1.6-1.2c-0.5-0.4-0.9-0.8-1.6-0.9
				c-0.8,0.1-1.6,0.4-2.2,0.9c-1.1,0.7-2.2,1.4-3.3,2.2c-3.5,2.6-6.7,5.4-9.4,8.5c-1.2,1.4-2.3,2.7-3.5,4.1
				c-0.4,0.4-0.8,0.8-1.2,1.2c-0.5,0.5-1.2,0.7-1.9,0.9c-0.4,0.1-0.8-0.1-1.2-0.2c-1.8-0.6-2.4-2-1.5-3.4c0.4-0.7,0.9-1.3,1.4-1.9
				c3.5-4.2,7-8.5,10.5-12.7c2-2.4,3.9-4.8,5.9-7.2c0.4-0.5,0.7-1,0.9-1.6c0.1-0.6,0.4-1,0.7-1.5c1.9-2.7,4.2-5.2,6.6-7.7
				c0.4-0.4,0.9-0.8,1.5-1c1.5-0.6,3.4,0.5,3.2,1.9c0,0.3-0.1,0.6-0.2,0.9c-0.4,0.8-0.8,1.6-1.3,2.4c-2,2.8-4,5.5-6,8.3
				c-0.4,0.6-0.9,1.2-1.3,1.8c-0.1,0.2-0.2,0.3-0.2,0.5c0.3,0.3,0.7,0.3,0.9,0.2c1.1-0.4,2.3-0.3,3.4-0.1c0.6,0.1,1.2,0.3,1.7,0.6
				c0.7,0.4,1.4,0.8,1.9,1.3c1.2,1.1,2.6,1.5,4.3,1.7c3.1,0.2,6.1,0,9.1-0.4c3.3-0.4,6.5-1,9.7-1.8c1-0.3,2-0.6,3-0.8
				c0.7-0.2,1.3-0.5,1.8-1c1.3-1.2,2.7-2.4,4.3-3.4c1-0.7,2.1-1.3,3.2-1.9c1-0.5,2.1-0.9,3.2-1.1c0.8-0.1,1.6-0.1,2.3,0.2
				c0.8,0.3,1.2,0.8,1.3,1.6c0.1,0.9-0.2,1.7-0.7,2.5c-0.7,1.1-1.6,2.1-2.6,2.9c-2.9,2.5-6.1,4.6-9.8,6.2c-0.7,0.3-1.3,0.5-2,0.7
				c-0.6,0.2-0.9,0.5-1.1,1c-0.4,0.8-0.5,1.7-0.6,2.6c0,1.3,0.3,1.8,1.7,2.3c1.2,0.5,2.5,0.5,3.8,0.5c3.2-0.2,6.4-0.9,9.4-1.8
				c3.9-1.2,7.5-2.8,11.1-4.5c0.7-0.3,1.2-0.8,1.8-1.3c4.5-4.1,9.5-7.7,15.2-10.6c2-1,4-1.9,6.2-2.6c2-0.6,4-0.8,6.1-0.6
				c1.7,0.2,3.1,0.8,3.8,2.2c0.1,0.2,0.2,0.5,0.3,0.8C690.8,690.5,690.9,690.8,691,691.1z M685.7,694.8c-0.6-0.6-0.3-1,0.1-1.3
				c0.3-0.2,0.5-0.5,0.7-0.7c0.2-0.3,0-0.6-0.4-0.6c-0.5,0-0.9,0-1.4,0.1c-1.7,0.4-3.3,1-4.8,1.7c-3.7,1.8-7.1,3.9-10.3,6.2
				c-2.6,1.9-5.2,4-7.7,6c-0.5,0.4-0.9,0.9-1.3,1.4c-0.1,0.1-0.1,0.3-0.1,0.5c0.5-0.1,0.9-0.2,1.2-0.3c1.8-0.8,3.5-1.5,5.3-2.4
				c4.8-2.3,9.3-5,13.9-7.6c0.8-0.5,1.6-0.9,2.4-1.4C683.9,695.9,684.7,695.4,685.7,694.8z M644.3,691.7c-0.2,0-0.4,0-0.5,0
				c-0.4,0.2-0.7,0.4-1.1,0.6c-1.8,1.1-3.4,2.3-4.8,3.7c-0.6,0.5-1.1,1.1-1.6,1.6c-0.1,0.1-0.3,0.3,0,0.6c0.2-0.1,0.5-0.2,0.7-0.3
				c0.8-0.5,1.5-0.9,2.2-1.4c1.7-1.1,3.1-2.3,4.5-3.7C643.9,692.5,644.3,692.2,644.3,691.7z"/>
			<path class="st5" d="M602.6,602.8c0.2,2.9-0.7,5.6-1.7,8.3c-1.8,4.9-4.1,9.6-6.8,14.2c-4.1,7-9.2,13.6-14.5,20
				c-3.2,3.8-6.5,7.5-10,11.1c-1.2,1.2-2.4,2.5-3.6,3.8c-0.4,0.4-0.9,0.7-1.5,0.8c-0.6,0.1-1.1-0.3-0.9-0.7c0.1-0.4,0.3-0.7,0.6-1.1
				c0.8-0.9,1.6-1.8,2.4-2.6c4.5-4.6,8.7-9.4,12.7-14.4c4.6-5.8,8.8-11.8,12.4-18.1c2.8-4.9,5.1-10,6.6-15.4c0.7-2.5,0.9-5,0.4-7.6
				c-0.3-1.5-1.1-2.7-2.9-3.2c-0.3-0.1-0.6-0.2-0.9-0.2c-1.7,0-3.3,0-4.9,0.4c-3,0.7-5.8,1.6-8.5,2.8c-5.9,2.5-11.5,5.5-16.9,8.8
				c-8.9,5.4-17.2,11.5-25.1,18c-9.3,7.7-18,15.8-26,24.5c-7.3,7.9-14.1,16.1-20.1,24.8c-3.8,5.4-7.2,11-10.2,16.8
				c-2.2,4.4-4.2,8.8-5.5,13.4c-0.7,2.6-1.3,5.2-1.2,7.9c0,1.4,0.3,2.8,0.8,4.1c0.3,0.8,0.8,1.5,1.3,2.2c0.9,1.1,2.2,1.8,3.8,2.1
				c1.5,0.3,3.1,0.3,4.7,0.2c3-0.3,5.9-1,8.7-2c3.5-1.2,6.9-2.6,10.2-4.2c8.1-3.8,15.8-8.2,23.3-12.8c12-7.3,23.7-14.9,35.3-22.6
				c3.8-2.5,7.5-5,11.3-7.5c1.4-0.9,2.8-1.8,4.2-2.7c0.5-0.3,1-0.5,1.5-0.8c0.7-0.3,1.6-0.5,2.4-0.5c0.8,0,1.5,0.3,1.8,0.9
				c0.3,0.5,0.6,1,0.7,1.5c0.3,1.3,0.4,2.6,0.2,3.9c-0.5,4.6-2.1,8.9-3.9,13.2c-1.7,4.1-3.7,8.1-6,12c-2.8,4.8-5.8,9.5-9,14.1
				c-3.8,5.4-7.8,10.6-12.3,15.5c-4.9,5.5-10.2,10.6-16.3,15.2c-3.8,2.8-7.8,5.4-12.3,7.5c-2,0.9-4,1.6-6.2,2
				c-1.3,0.2-2.7,0.2-4-0.2c-1.9-0.6-2.8-1.8-3.1-3.5c-0.1-0.9,0.1-1.8,0.5-2.7c0.6-1.6,1.7-2.9,2.8-4.2c1.6-1.8,3.4-3.5,5.4-5.1
				c7.7-6.4,16.4-11.7,25.7-16.2c3.5-1.7,7.1-3.4,10.8-4.8c1-0.4,1.7-1,2.3-1.8c3.5-4.7,6.9-9.5,10-14.4c4-6.4,7.6-13,10.2-19.9
				c0.9-2.4,1.7-4.8,2.2-7.2c0.2-0.9,0.2-1.9,0.3-2.8c0-0.2,0-0.5-0.1-0.7c-0.2-0.7-0.8-1-1.5-0.7c-0.4,0.2-0.8,0.4-1.2,0.6
				c-1,0.7-2.1,1.4-3.1,2.2c-6.1,4.4-12.3,8.8-18.4,13.1c-6.4,4.5-12.9,8.8-19.5,13.1c-6.1,4-12.3,7.9-18.7,11.7
				c-5.7,3.4-11.6,6.6-17.8,9.4c-3.8,1.7-7.8,3.3-11.9,4.4c-2.2,0.6-4.5,0.9-6.8,0.9c-0.7,0-1.5,0-2.2,0c-1.1,0-2.2-0.2-3.2-0.5
				c-1.3-0.4-2.6-0.9-3.7-1.6c-2-1.2-3.4-2.8-3.8-4.9c-0.4-2-0.7-4.1-0.8-6.1c-0.1-3.4,0.6-6.8,1.6-10.1c1.1-3.7,2.7-7.3,4.4-10.9
				c4.5-9,10-17.5,16.3-25.7c6.4-8.4,13.5-16.3,21.1-24c4.9-5,10.1-9.8,15.6-14.4c8.2-6.9,16.8-13.4,26-19.3
				c6-3.8,12.1-7.4,18.7-10.4c4.1-1.9,8.3-3.5,12.7-4.5c1.6-0.4,3.1-0.7,4.7-0.8c2.1-0.2,4.1,0,6,0.9c2,0.9,3.3,2.4,4,4.2
				c0.1,0.3,0.1,0.5,0.2,0.8C602.5,600.9,602.6,601.8,602.6,602.8z M519.4,751.3c0.4,0,0.7,0,1-0.1c1.2-0.3,2.3-0.7,3.4-1.2
				c3.5-1.6,6.8-3.5,9.9-5.7c3-2.1,5.8-4.4,8.6-6.7c1.6-1.3,3.1-2.6,4.5-4c3-3.1,6-6.3,8.9-9.4c0.4-0.4,0.7-0.8,1-1.3
				c0.1-0.1,0-0.3,0.1-0.5c-0.6-0.1-1,0.1-1.4,0.3c-2.3,1.1-4.6,2.3-6.9,3.5c-7.6,4-14.6,8.6-20.8,14.1c-2,1.7-3.8,3.5-5.5,5.5
				c-1,1.2-1.9,2.5-2.6,3.9C519.4,750.3,519.1,750.7,519.4,751.3z"/>
			<path class="st5" d="M812.7,702.8c-0.3,0.1-0.6,0.2-0.8,0.3c-1.3,0.7-2.6,1.4-3.9,2.1c-3.3,1.7-6.7,3.3-10.3,4.6
				c-2.1,0.8-4.3,1.4-6.6,1.7c-1.7,0.3-3.5,0.4-5.2,0.3c-1.4-0.1-2.7-0.4-4-1c-2.1-1-3.1-2.5-3.3-4.5c-0.1-1,0-2.1,0.4-3
				c0.4-0.8,0.8-1.6,1.1-2.4c0.1-0.3,0.4-0.6,0.3-1.1c-0.2,0-0.5,0-0.8,0c-2,0.4-3.9,0.9-5.9,1.4c-2,0.4-4,0.7-6,0.9
				c-2.6,0.3-5.2,0.2-7.9,0.2c-2.1,0-3.8-0.7-5.4-1.9c-0.5-0.4-1-0.7-1.4-1.1c-0.7-0.6-1.4-0.6-2.2-0.2c-0.7,0.4-1.4,0.7-2,1.1
				c-1.1,0.7-2.2,1.5-3.2,2.3c-3.7,2.8-7,5.9-9.8,9.3c-1,1.2-2.1,2.3-3.1,3.5c-0.4,0.5-1,0.7-1.5,1c-1.5,0.8-3.8-0.6-3.9-2.1
				c0-0.3,0.1-0.6,0.2-0.8c0.4-0.6,0.8-1.3,1.3-1.8c2.9-3.6,5.8-7.1,8.8-10.7c2.6-3.2,5.3-6.4,7.9-9.6c0.5-0.6,0.8-1.1,1-1.8
				c0.1-0.5,0.4-0.9,0.7-1.3c2-2.7,4.2-5.3,6.6-7.7c0.4-0.4,0.8-0.7,1.2-0.9c1.3-0.8,3.5,0,3.4,1.7c0,0.6-0.2,1.3-0.6,1.8
				c-0.6,1-1.3,2-2,3c-1.7,2.4-3.5,4.8-5.2,7.1c-0.3,0.5-0.7,0.9-1,1.4c-0.1,0.2-0.2,0.4-0.3,0.6c0.4,0.3,0.7,0.2,1.1,0.1
				c2.4-0.5,4.5-0.1,6.2,1.3c0.2,0.1,0.3,0.3,0.5,0.4c1.1,1.1,2.6,1.6,4.3,1.7c2.4,0.2,4.8,0.1,7.2-0.2c4.3-0.4,8.5-1.2,12.6-2.2
				c0.4-0.1,0.7-0.2,1.1-0.3c1.4-0.3,2.5-1,3.6-1.9c1.8-1.7,3.8-3.1,6-4.3c1.3-0.7,2.6-1.3,4.2-1.5c0.5-0.1,1,0,1.5,0
				c1.5,0.3,2.3,1.3,1.9,2.6c-0.2,0.7-0.6,1.3-0.9,2c-0.5,0.9-1.4,1.7-2.2,2.4c-2.9,2.5-6.1,4.7-9.8,6.3c-0.7,0.3-1.4,0.6-2.2,0.8
				c-0.5,0.2-0.9,0.4-1,0.9c-0.3,0.9-0.6,1.8-0.6,2.8c0,1.1,0.6,1.8,1.7,2.2c1.3,0.5,2.6,0.5,3.9,0.5c3-0.1,5.8-0.8,8.6-1.6
				c2.9-0.9,5.8-1.9,8.5-3.2c2.9-1.3,5.7-2.8,8.5-4.2c0.7-0.3,1.1-0.8,1.6-1.3c2.7-3.3,6.1-6.2,10-8.5c1.3-0.8,2.7-1.4,4.3-1.6
				c0.7-0.1,1.5-0.1,2.2,0.1c0.8,0.3,1.3,0.8,1.4,1.6c0.1,0.6,0,1.2-0.3,1.7c-0.5,1.1-1.3,2-2.2,2.9c-2.2,2-4.6,3.9-7.4,5.4
				c-1,0.6-2,1.1-3.1,1.6c-0.7,0.3-1.4,0.6-2.2,0.8c-0.6,0.2-0.9,0.4-1.1,1c-0.2,0.7-0.4,1.4-0.6,2.1c-0.1,0.3-0.1,0.6,0,0.8
				c0.1,1,0.6,1.6,1.7,2c1.2,0.5,2.5,0.5,3.8,0.5c2.7-0.1,5.3-0.7,7.8-1.4c3-0.8,5.9-1.9,8.8-3.2c3.3-1.4,6.5-3,9.6-4.7
				c1.5-0.9,3.1-1.7,4.5-2.8c0.4-0.3,1-0.5,1.6-0.7c0.2-0.1,0.4-0.1,0.5-0.1c0.5,0,0.8,0.5,0.5,0.8c-0.3,0.3-0.6,0.6-1,0.9
				c-1.2,0.8-2.4,1.7-3.6,2.4c-4.8,3.1-9.9,5.9-15.2,8.2c-3.3,1.5-6.8,2.7-10.5,3.3c-1.8,0.3-3.6,0.5-5.4,0.3
				c-1.7-0.1-3.3-0.5-4.7-1.3c-1.5-0.9-2.4-2.1-2.6-3.6c-0.2-1.1-0.2-2.3,0.2-3.4c0.1-0.1,0.1-0.3,0-0.5
				C812.9,703,812.8,702.9,812.7,702.8z M787.4,698.3c0.4-0.1,0.6-0.2,0.7-0.2c1.2-0.8,2.4-1.5,3.5-2.3c1.4-1,2.7-2.1,3.9-3.4
				c0.1-0.2,0.2-0.4,0.4-0.7c-0.4,0.1-0.6,0.1-0.8,0.2c-2.9,1.5-5.2,3.5-7.3,5.8C787.7,697.7,787.6,697.9,787.4,698.3z M829.8,691.8
				c-0.3,0-0.5-0.1-0.6-0.1c-0.3,0.1-0.6,0.3-0.8,0.4c-2.5,1.5-4.7,3.4-6.7,5.4c-0.1,0.1-0.3,0.3-0.1,0.6c0.2-0.1,0.4-0.1,0.6-0.2
				c0.9-0.5,1.7-1.1,2.6-1.6c1.7-1.1,3.1-2.3,4.4-3.7C829.4,692.4,829.5,692.1,829.8,691.8z"/>
			<path class="st5" d="M785.8,758.6c-0.2-0.6,0.1-0.9,0.3-1.3c1.6-3.6,3.1-7.2,4.7-10.8c2.8-6.4,5.6-12.9,8.3-19.3
				c1.2-2.8,2.4-5.6,3.7-8.5c0.1-0.2,0.2-0.4,0.3-0.5c0.1-0.2,0.4-0.4,0.7-0.4c0.2,0,0.5,0,0.7,0c2.6,0,5.2,0,7.7,0
				c0.3,0,0.6,0.1,1,0.1c-0.1,0.3-0.2,0.6-0.3,0.8c-1.7,3.9-3.4,7.8-5.1,11.7c-0.6,1.3-1.1,2.6-1.7,3.9c-0.1,0.3-0.2,0.6-0.3,1
				c0.4-0.1,0.7-0.2,0.9-0.3c0.7-0.4,1.3-0.9,2-1.3c1.6-1,3.4-1.8,5.3-2.2c1.5-0.4,3.1-0.4,4.7-0.2c1.9,0.3,3.1,1.4,3.3,3.1
				c0.1,1.3-0.2,2.6-0.7,3.8c-1.2,2.7-2.3,5.3-3.5,8c-1.6,3.7-3.2,7.4-4.8,11c-0.6,1.3-0.4,1.3-2.2,1.3c-2.3,0-4.6,0-6.9,0
				c-0.4,0-0.9,0.1-1.3-0.2c-0.2-0.4,0.1-0.7,0.2-1c1.3-3,2.6-6.1,4-9.1c0.8-1.9,1.6-3.8,2.4-5.7c0.3-0.6,0.5-1.2,0.4-1.9
				c0-1.3-0.9-2-2.4-1.8c-1.3,0.1-2.4,0.6-3.2,1.5c-0.7,0.7-1.2,1.6-1.6,2.5c-0.9,2.1-1.8,4.2-2.7,6.2c-1.2,2.8-2.4,5.6-3.7,8.5
				c-0.1,0.2-0.2,0.4-0.3,0.6c-0.1,0.3-0.4,0.4-0.7,0.5c-0.2,0-0.5,0-0.7,0c-2.6,0-5.2,0-7.7,0C786.4,758.6,786.1,758.6,785.8,758.6
				z"/>
			<path class="st5" d="M730.1,747.4c-0.8,1.4-1.1,2.9-0.9,4.4c0.1,1.1,1,1.6,2.3,1.7c1.1,0.1,2.1-0.2,3-0.7
				c0.6-0.4,1.1-0.7,1.5-1.2c0.5-0.6,1.1-0.8,2-0.8c1.9,0,3.8,0,5.7,0c0.4,0,0.7,0.1,1.1,0.1c-0.1,0.2,0,0.4-0.1,0.5
				c-2,2.6-4.4,4.8-7.6,6.3c-1.8,0.9-3.8,1.4-5.9,1.6c-2,0.2-4,0.2-6-0.3c-2.7-0.7-4.3-2.2-5-4.5c-0.4-1.2-0.4-2.5-0.2-3.8
				c1.1-6.2,4-11.5,9.5-15.7c2.3-1.8,5-3,8-3.6c1.9-0.3,3.7-0.5,5.6-0.2c1.6,0.3,3,0.8,4.2,1.7c1.6,1.2,2.5,2.7,2.6,4.5
				c0.1,1.4,0,2.9-0.4,4.2c-0.4,1.4-0.9,2.8-1.4,4.2c-0.5,1.5-0.5,1.3-2.1,1.3c-4.8,0-9.6,0-14.4,0
				C731.1,747.4,730.6,747.4,730.1,747.4z M732.2,742.8c0.4,0.1,0.6,0.2,0.8,0.2c2.1,0,4.1,0,6.2,0c0.6,0,1-0.2,1.1-0.7
				c0.4-1.1,0.7-2.2,0.6-3.4c-0.1-1.1-0.8-1.7-2.1-1.8c-1.4-0.1-2.6,0.3-3.6,1.1C733.8,739.4,732.9,741,732.2,742.8z"/>
			<path class="st5" d="M783.9,733.4c-0.9,2.1-1.8,4.3-2.8,6.5c-0.4-0.1-0.7-0.2-1-0.3c-1.8-0.7-3.6-0.5-5.3,0.2
				c-1.4,0.6-2.5,1.4-3.4,2.4c-1.5,1.7-2.4,3.5-2.8,5.6c-0.1,0.7,0,1.4,0.3,2.1c0.5,1.1,1.4,1.7,2.8,1.8c1,0.1,2,0,3-0.2
				c0.4-0.1,0.9-0.2,1.3-0.3c0.3,0.2,0.1,0.4,0,0.6c-0.7,1.7-1.5,3.5-2.2,5.2c-0.2,0.4-0.5,0.7-1,0.9c-2,0.8-4.1,1.4-6.3,1.6
				c-1.5,0.1-2.9,0.1-4.4-0.3c-1.8-0.5-3-1.5-3.8-2.9c-0.4-0.8-0.7-1.6-0.7-2.4c-0.2-1.9,0-3.7,0.5-5.5c1.4-4.4,3.6-8.4,7.2-11.8
				c1.8-1.6,3.8-3,6.1-4c1.7-0.7,3.4-1.2,5.3-1.3c2.5-0.2,4.8,0.3,6.8,1.6c0.1,0.1,0.2,0.2,0.3,0.2
				C783.7,733.1,783.8,733.1,783.9,733.4z"/>
			<path class="st5" d="M685.7,694.8c-1,0.6-1.8,1-2.6,1.5c-0.8,0.5-1.6,1-2.4,1.4c-4.6,2.6-9.1,5.2-13.9,7.6
				c-1.7,0.8-3.5,1.6-5.3,2.4c-0.3,0.1-0.7,0.2-1.2,0.3c0.1-0.3,0-0.4,0.1-0.5c0.4-0.5,0.8-1,1.3-1.4c2.5-2,5.1-4.1,7.7-6
				c3.2-2.3,6.6-4.4,10.3-6.2c1.5-0.7,3.1-1.3,4.8-1.7c0.4-0.1,0.9-0.1,1.4-0.1c0.3,0,0.6,0.3,0.4,0.6c-0.2,0.3-0.4,0.5-0.7,0.7
				C685.4,693.9,685.1,694.2,685.7,694.8z"/>
			<path class="st5" d="M644.3,691.7c0,0.5-0.4,0.8-0.7,1.1c-1.3,1.4-2.8,2.6-4.5,3.7c-0.7,0.5-1.5,0.9-2.2,1.4
				c-0.2,0.1-0.5,0.2-0.7,0.3c-0.3-0.2-0.1-0.4,0-0.6c0.5-0.5,1.1-1.1,1.6-1.6c1.5-1.4,3.1-2.6,4.8-3.7c0.3-0.2,0.7-0.4,1.1-0.6
				C643.9,691.7,644.1,691.7,644.3,691.7z"/>
			<path class="st5" d="M519.4,751.3c-0.2-0.7,0.1-1.1,0.3-1.5c0.7-1.4,1.5-2.7,2.6-3.9c1.7-1.9,3.6-3.7,5.5-5.5
				c6.2-5.5,13.2-10.1,20.8-14.1c2.3-1.2,4.6-2.3,6.9-3.5c0.4-0.2,0.8-0.4,1.4-0.3c0,0.2,0,0.3-0.1,0.5c-0.3,0.4-0.6,0.9-1,1.3
				c-3,3.1-5.9,6.3-8.9,9.4c-1.4,1.4-3,2.7-4.5,4c-2.8,2.3-5.6,4.6-8.6,6.7c-3.1,2.1-6.3,4.1-9.9,5.7c-1.1,0.5-2.2,0.9-3.4,1.2
				C520.1,751.3,519.7,751.3,519.4,751.3z"/>
			<path class="st5" d="M787.4,698.3c0.2-0.4,0.2-0.6,0.4-0.7c2.1-2.2,4.5-4.2,7.3-5.8c0.2-0.1,0.4-0.1,0.8-0.2
				c-0.2,0.4-0.2,0.6-0.4,0.7c-1.1,1.3-2.4,2.4-3.9,3.4c-1.1,0.8-2.4,1.5-3.5,2.3C788,698.1,787.9,698.1,787.4,698.3z"/>
			<path class="st5" d="M829.8,691.8c-0.3,0.4-0.4,0.6-0.6,0.9c-1.3,1.4-2.8,2.6-4.4,3.7c-0.8,0.5-1.7,1.1-2.6,1.6
				c-0.2,0.1-0.4,0.1-0.6,0.2c-0.2-0.3-0.1-0.5,0.1-0.6c2-2,4.1-3.9,6.7-5.4c0.3-0.2,0.5-0.3,0.8-0.4
				C829.3,691.7,829.5,691.7,829.8,691.8z"/>
			<path class="st5" d="M732.2,742.8c0.7-1.8,1.6-3.4,3.1-4.6c1-0.8,2.2-1.1,3.6-1.1c1.3,0.1,2,0.7,2.1,1.8c0.1,1.2-0.2,2.3-0.6,3.4
				c-0.2,0.5-0.6,0.7-1.1,0.7c-2.1,0-4.1,0-6.2,0C732.8,743,732.6,742.9,732.2,742.8z"/>
		</g>
	</g>
</g>
<g>
	<g>
		<g>
			<path class="st5" d="M655.6,467.1c-0.2-0.5-0.3-0.8-0.4-1.2c-0.1-0.4-0.2-0.8-0.4-1.2c-0.9-2.1-2.7-3-4.8-3.3
				c-2.6-0.4-5.2,0-7.6,0.9c-2.7,1-5.3,2.4-7.7,3.9c-7.1,4.3-13.3,9.6-19,15.8c-0.7,0.7-1.3,1.4-2.2,1.9c-4.5,2.5-9,4.9-13.9,6.7
				c-3.8,1.4-7.7,2.5-11.7,2.7c-1.6,0.1-3.2,0-4.7-0.7c-1.8-0.8-2.1-1.6-2.1-3.5c0-1.3,0.3-2.6,0.7-3.8c0.3-0.7,0.6-1.2,1.4-1.4
				c0.9-0.3,1.7-0.7,2.5-1.1c4.6-2.3,8.5-5.5,12.2-9.2c1.3-1.3,2.4-2.7,3.3-4.3c0.6-1.2,1-2.4,0.9-3.7c-0.1-1.1-0.6-1.9-1.6-2.3
				c-0.9-0.4-1.9-0.5-2.9-0.3c-1.4,0.3-2.8,0.8-4,1.6c-1.4,0.9-2.7,1.8-4,2.8c-1.9,1.5-3.7,3.2-5.3,5c-0.7,0.7-1.4,1.2-2.3,1.5
				c-1.3,0.4-2.5,0.9-3.8,1.3c-4,1.2-8,2-12.1,2.6c-3.8,0.6-7.5,1-11.4,0.6c-2.1-0.2-3.9-0.8-5.4-2.5c-0.7-0.8-1.5-1.4-2.4-2
				c-0.6-0.4-1.3-0.7-2.1-0.8c-1.4-0.2-2.9-0.4-4.3,0.2c-0.3,0.1-0.8,0.2-1.2-0.3c0.1-0.2,0.2-0.5,0.3-0.7c0.5-0.9,1.1-1.8,1.6-2.7
				c2.5-4.1,5-8.2,7.5-12.3c0.7-1.1,1.1-2.3,1.7-3.5c0.2-0.4,0.2-0.9,0.3-1.4c0.2-2.1-2.2-3.7-4-2.8c-0.7,0.4-1.4,0.9-1.9,1.5
				c-3,3.6-5.8,7.3-8.2,11.3c-0.4,0.7-0.8,1.4-0.9,2.3c-0.2,0.9-0.6,1.6-1.1,2.4c-2.5,3.6-4.9,7.1-7.4,10.7
				c-4.4,6.3-8.8,12.5-13.1,18.8c-0.6,0.9-1.2,1.8-1.8,2.8c-1.1,2.1-0.3,4.2,1.9,5c0.5,0.2,1,0.4,1.5,0.3c0.9-0.2,1.8-0.5,2.4-1.3
				c0.5-0.6,1-1.1,1.4-1.7c1.5-2,2.9-4.1,4.4-6.1c3.4-4.7,7.4-8.8,11.8-12.6c1.3-1.1,2.7-2.2,4.1-3.2c0.8-0.6,1.7-1.2,2.8-1.3
				c0.8,0.2,1.4,0.9,2,1.4c0.7,0.6,1.3,1.2,2,1.7c1.5,1.1,3.1,2,4.9,2c3.6,0.1,7.1,0.3,10.7-0.3c3-0.5,6-0.9,9-1.7
				c1.9-0.5,3.9-1.1,5.8-1.7c0.4-0.1,0.8-0.3,1.2,0.2c-0.1,0.4-0.3,0.8-0.5,1.2c-0.4,1-0.8,2.1-1.2,3.1c-0.8,2-0.9,4-0.6,6.1
				c0.3,2.2,1.3,4,3.2,5.2c1.9,1.3,4,1.9,6.2,2c2.7,0.2,5.4-0.2,8-0.9c4.6-1.2,8.8-3.1,12.9-5.3c0.9-0.5,1.7-1,2.6-1.4
				c0.2-0.1,0.5-0.1,0.9-0.1c0,0.4,0.1,0.6,0,0.8c-0.4,1.3-0.3,2.6-0.3,3.8c0,1.5,0.8,2.4,2,3c1.1,0.5,2.2,0.7,3.4,0.3
				c1.2-0.4,2.4-0.8,3.6-1.3c3.5-1.6,6.8-3.8,9.9-6.1c5.7-4.1,11.3-8.3,17-12.4c1.8-1.3,3.6-2.7,5.5-4c0.3-0.2,0.6-0.5,1.1-0.2
				c0,0.8-0.4,1.4-0.7,2c-1,2.4-1.6,4.9-1.4,7.5c0.3,3.6,2.5,6.4,5.9,7.4c2.2,0.6,4.5,0.5,6.7,0.2c1.9-0.3,3.8-1,5.6-1.8
				c4.2-1.9,8.3-4.1,12.3-6.5c2.1-1.2,4.1-2.6,6.2-3.8c0.3-0.2,0.6-0.4,1,0.1c-0.2,0.5-0.4,1-0.7,1.5c-1.7,3.3-3.4,6.7-5,10
				c-3.4,7.2-6.9,14.3-10.2,21.6c-3.8,8.3-7.5,16.7-10.6,25.2c-1.5,4-2.9,8-3.8,12.2c-0.7,3.2-0.8,6.4-0.5,9.6
				c0.4,3.9,3.5,5.5,6.1,5.6c2.9,0.1,5.4-0.9,7.9-2.1c1.1-0.5,1.5-1.5,1.5-2.7c-0.1-1.5-0.8-2.3-2.2-2.3c-1,0-2.1,0-3.1,0.4
				c-0.9,0.4-2,0.7-3,0.1c0-0.3-0.2-0.7-0.1-1c0.2-1.3,0.3-2.6,0.6-3.8c0.9-3.8,2.3-7.4,3.8-11c3.6-9.1,7.8-17.9,12-26.7
				c5.6-11.5,11.4-22.9,17.5-34.2c5.3-9.9,10.7-19.6,16.3-29.2c10.9-18.5,22.1-36.7,33.6-54.8c8.1-12.7,16.2-25.4,24.2-38.2
				c3.3-5.3,6.5-10.7,9.7-16.1c1.3-2.2,2.5-4.4,2.7-7c0-0.1,0.1-0.2,0.1-0.3c0.1-0.5,0.4-0.8,1-0.9c1.3-0.1,2.5-0.3,3.8-0.4
				c1.7-0.2,3.4-0.3,5.2-0.4c1.3-0.1,2.6-0.2,3.9-0.4c1.9-0.2,3.9-0.4,5.8-0.6c2.1-0.2,4.1-0.2,6.2-0.4c3-0.3,5.9-0.6,8.9-0.7
				c0.1,0,0.2,0,0.3,0c2.4-0.2,4.8-0.5,7.2-0.6c2.8-0.2,5.6-0.3,8.4-0.4c0.1,0,0.2,0,0.3,0c2.9-0.2,5.8-0.5,8.8-0.6
				c2.1-0.1,4.1-0.1,6.2-0.3c3.6-0.3,7.2-0.3,10.9-0.4c1.8-0.1,3.7,0,5.5-0.1c1.7-0.1,3.4-0.3,5.2-0.3c8.6,0,17.3,0,25.9-0.1
				c5.4,0,10.8,0.3,16.2,0.4c1.6,0.1,3.2,0.2,4.8,0.4c0.1,0,0.2,0,0.3,0c1.7,0.2,3.4,0.4,5.1,0.6c2.3,0.3,4.6,0.8,6.9,1.5
				c0.4,0.1,0.9,0.3,1.3,0.6c0.9,0.5,1,1,0.4,1.8c-0.1,0.2-0.3,0.3-0.5,0.5c-0.9,1-2,1.8-3.1,2.5c-0.7,0.4-1.3,1-1.9,1.5
				c-0.4,0.4-0.5,0.9-0.3,1.5c0.2,0.6,0.7,0.9,1.3,1c0.7,0.1,1.3-0.1,1.8-0.4c2-1,3.9-2.2,5.5-3.9c0.4-0.4,0.7-0.8,1-1.2
				c1.1-1.5,1.3-4.1-0.4-5.8c-0.7-0.8-1.6-1.4-2.5-1.8c-1-0.4-1.9-0.8-2.9-1.1c-3.9-1.2-7.9-1.8-11.9-2.1c-4-0.3-7.9-0.6-11.9-0.8
				c-4.8-0.3-9.7-0.4-14.5-0.4c-10.5,0-21-0.1-31.4,0.3c-3,0.1-6,0.1-9,0.2c-4.1,0.2-8.3,0.4-12.4,0.6c-3.6,0.2-7.2,0.3-10.9,0.5
				c-3.2,0.2-6.4,0.4-9.7,0.6c-4.1,0.3-8.3,0.5-12.4,0.8c-1.8,0.1-3.6,0.3-5.3,0.4c-2.4,0.2-4.7,0.4-7.1,0.6
				c-3.2,0.3-6.4,0.5-9.6,0.8c-3,0.3-6.1,0.6-9.1,0.9c-3.9,0.4-7.8,0.7-11.7,1.2c-3.5,0.4-7,0.8-10.5,1.3
				c-5.2,0.7-10.4,1.3-15.6,2.1c-6.2,0.9-12.4,1.9-18.6,2.9c-8,1.4-16,3-23.9,4.9c-9.3,2.2-18.5,4.7-27.6,7.8
				c-4.9,1.7-9.8,3.4-14.5,5.6c-1.8,0.9-3.6,1.9-5.3,3c-1,0.6-1.9,1.5-2.7,2.5c-1.5,2,0,4.8,2.2,4.9c1.7,0,3.5,0,5.2-0.2
				c3.1-0.4,6.1-1.1,9.1-2c2.5-0.7,5.1-1.6,7.6-2.4c0.6-0.2,1.1-0.6,1.6-1c0.2-0.1,0.2-0.5,0.1-0.8c-0.1-0.3-0.4-0.4-0.7-0.3
				c-0.8,0.2-1.7,0.3-2.5,0.6c-3.2,1-6.5,1.6-9.8,2.1c-0.9,0.1-1.8,0.2-2.8,0.2c-0.4,0-0.8,0.1-1-0.6c0.5-0.2,1-0.5,1.5-0.7
				c2.9-1.1,5.7-2.2,8.6-3.1c6.8-2.3,13.6-4.3,20.5-6c6.2-1.6,12.4-3,18.6-4.4c4.3-1,8.7-1.8,13-2.7c3.5-0.7,7-1.3,10.5-1.9
				c2.3-0.4,4.6-0.8,7-1.2c2.6-0.4,5.1-0.9,7.7-1.3c2.8-0.4,5.6-0.8,8.4-1.1c3.6-0.5,7.2-0.9,10.8-1.4c1.2-0.2,2.4-0.3,3.6-0.4
				c1.3-0.2,2.6-0.4,3.9-0.6c0.7-0.1,1.5-0.2,2.2-0.2c0.6-0.1,0.9,0.3,0.8,0.9c-0.2,0.6-0.3,1.1-0.6,1.7c-0.6,1.2-1.1,2.3-1.8,3.4
				c-3.8,6.7-7.9,13.2-12.1,19.7c-5.2,8-10.5,16-15.7,24.1c-9.4,14.6-18.5,29.4-27.3,44.3c-7.8,13.4-15.4,26.9-22.6,40.6
				c-0.6,1.1-1.3,1.9-2.3,2.6c-6.2,4.3-12.7,7.9-19.6,10.7c-2.4,1-4.8,1.7-7.4,1.7c-1.3,0-2.7-0.1-3.9-0.4c-1.7-0.4-2.3-1.4-2.1-3.1
				c0.1-0.8,0.3-1.6,0.6-2.4c0.7-2.1,1.5-4.2,2.3-6.3c0.4-1,0.8-2.1,1.1-3.2c0.2-0.7,0.2-1.5,0.2-2.3c-0.1-1.2-0.8-1.9-2-2
				c-0.5,0-1,0.1-1.5,0.1C656.4,466.9,656.1,466.9,655.6,467.1z M545.1,336.3c-0.1-1.4-0.1-2.8-0.2-4.2c0-0.4-0.1-0.8-0.2-1.2
				c-0.9-2.7-2.5-4.9-5-6.2c-2.4-1.3-4.9-1.6-7.5-1.3c-2,0.3-4,0.7-5.9,1.2c-5.6,1.5-10.8,4-15.9,6.7c-8.2,4.4-15.9,9.7-23.4,15.4
				c-11.5,8.7-22.3,18.3-32.4,28.5c-6.8,6.8-13.3,13.8-19.4,21.3c-9.4,11.4-18.3,23.1-26.3,35.6c-7.8,12.1-14.7,24.7-20.3,38
				c-2.2,5.2-4.2,10.6-5.6,16.1c-1.2,4.9-2.1,9.9-2,15c0,3.1,0.5,6.1,1,9.1c0.5,3.2,2.2,5.5,4.8,7.2c1.4,1,3,1.7,4.6,2.3
				c1.3,0.5,2.6,0.8,4,0.7c0.9,0,1.8,0,2.8,0c2.9,0.1,5.7-0.4,8.5-1.3c5.2-1.6,10.1-3.9,14.9-6.5c7.7-4.1,15.1-8.8,22.2-13.9
				c7.9-5.6,15.7-11.4,23.3-17.3c8.2-6.3,16.4-12.8,24.4-19.4c7.7-6.4,15.4-12.9,23-19.4c1.3-1.1,2.6-2.2,3.9-3.2
				c0.4-0.4,0.9-0.7,1.4-0.9c1-0.4,1.7,0,1.9,1.1c0.1,0.3,0.1,0.7,0.1,1c-0.1,1.4-0.1,2.8-0.3,4.2c-0.6,3.7-1.6,7.2-2.8,10.7
				c-3.2,10.3-7.7,20-12.7,29.5c-3.9,7.3-8.1,14.3-12.5,21.3c-0.7,1.2-1.6,2-2.9,2.6c-4.6,2.1-9.1,4.5-13.5,7.1
				c-11.6,6.7-22.4,14.6-32.1,24.1c-2.4,2.4-4.7,4.9-6.7,7.6c-1.4,1.9-2.7,3.9-3.5,6.2c-0.4,1.3-0.7,2.6-0.6,4
				c0.3,2.5,1.5,4.3,3.8,5.2c1.6,0.6,3.3,0.5,4.9,0.2c2.7-0.5,5.3-1.6,7.7-2.9c5.6-3,10.6-6.9,15.3-11.1
				c7.6-6.7,14.3-14.3,20.4-22.4c5.6-7.4,10.6-15.1,15.4-23c4.1-6.8,7.8-13.7,11.3-20.8c2.8-5.8,5.3-11.7,7.5-17.8
				c2.2-6.4,4.3-12.8,4.8-19.6c0.2-2,0.1-3.9-0.3-5.8c-0.2-0.8-0.5-1.5-0.9-2.3c-0.5-0.9-1.3-1.3-2.3-1.3c-1,0-2.1,0.2-3,0.7
				c-0.7,0.4-1.3,0.7-1.9,1.2c-1.8,1.3-3.5,2.6-5.3,4c-4.7,3.7-9.4,7.4-14.1,11.1c-14.5,11.4-29.1,22.7-44.1,33.5
				c-9.4,6.8-19,13.3-29.1,18.9c-4.1,2.3-8.4,4.5-12.8,6.2c-3.5,1.4-7.1,2.5-10.8,2.9c-2,0.2-3.9,0.2-5.8-0.2
				c-1.9-0.4-3.5-1.4-4.7-3c-0.7-1-1.3-2.1-1.7-3.3c-0.6-2-1-4-1-6.1c0-4,0.7-7.8,1.5-11.7c1.6-6.9,4-13.5,6.9-19.9
				c3.7-8.5,8.1-16.8,12.7-24.8c7.5-12.8,15.9-25,25.1-36.7c10.1-12.8,20.9-24.9,32.5-36.2c9.8-9.6,20.2-18.5,31.3-26.6
				c6.7-4.9,13.6-9.4,21.1-13.1c3.4-1.7,6.9-3.2,10.6-4.1c2-0.5,4.1-0.6,6.2-0.6c0.4,0,0.8,0.1,1.2,0.3c2.2,0.8,3.2,2.6,3.6,4.8
				c0.6,3.8,0.3,7.5-0.6,11.2c-1.9,7.9-4.7,15.5-8.3,22.7c-4.5,9.3-9.7,18.3-15.5,26.9c-4.9,7.4-10.2,14.5-15.8,21.4
				c-1,1.3-2,2.6-3,3.9c-0.3,0.5-0.6,1-0.7,1.6c-0.2,0.7,0.4,1.3,1.1,1.1c0.8-0.2,1.4-0.6,1.9-1.2c1.5-1.9,3-3.7,4.5-5.6
				c4.4-5.3,8.5-10.8,12.4-16.5c6.6-9.5,12.9-19.2,18.1-29.6c3.4-6.8,6.3-13.7,8.5-21C544.2,344.6,545.3,340.6,545.1,336.3z
				 M807.6,484.3c0.1,0.2,0.3,0.3,0.3,0.4c0,0.2,0,0.5-0.1,0.7c-0.6,1.7-0.5,3.4-0.3,5.1c0.3,2.3,1.3,4.1,3.2,5.4
				c1.8,1.2,3.7,1.8,5.8,2c2.2,0.2,4.5-0.1,6.7-0.5c4.6-0.9,8.9-2.7,13.1-4.9c6.7-3.5,13-7.6,19-12.1c1.5-1.1,3-2.4,4.5-3.6
				c0.4-0.4,0.8-0.8,1.2-1.3c0.4-0.5,0-1.2-0.7-1.2c-0.2,0-0.5,0-0.7,0.1c-0.7,0.3-1.4,0.6-1.9,1.1c-1.7,1.6-3.6,2.9-5.6,4.1
				c-3.9,2.6-7.9,4.9-12,7c-3.5,1.8-7.2,3.5-11,4.7c-3.2,1-6.4,1.9-9.8,2c-1.6,0.1-3.2,0-4.7-0.7c-1.3-0.6-2-1.5-2.1-3
				c0-0.4,0-0.8,0-1.2c0.2-1,0.5-2,0.7-3.1c0.2-0.8,0.6-1.2,1.3-1.4c0.9-0.3,1.8-0.7,2.7-1.2c1.3-0.7,2.6-1.5,3.9-2.3
				c3.4-2.2,6.4-4.9,9.2-8c1.1-1.3,2.1-2.7,2.7-4.3c0.3-0.8,0.4-1.7,0.4-2.6c-0.1-1.2-0.7-2-1.8-2.4c-0.9-0.4-1.8-0.4-2.7-0.2
				c-2,0.4-3.7,1.3-5.3,2.4c-4.9,3.4-9.1,7.6-12.5,12.5c-0.5,0.8-1.2,1.4-2,1.9c-3.5,2.1-7.1,4.2-10.6,6.2
				c-3.4,1.9-6.9,3.5-10.6,4.7c-3.5,1.2-7,2.2-10.8,2.4c-1.7,0.1-3.3,0-4.9-0.7c-1.4-0.6-2.2-1.6-2.2-3.3c0-1.4,0.4-2.8,0.8-4.1
				c0.2-0.7,0.6-1,1.3-1.3c0.9-0.3,1.8-0.7,2.7-1.2c4.6-2.4,8.6-5.6,12.3-9.3c1.1-1.1,2.1-2.2,2.8-3.6c0.5-0.9,0.9-1.9,1.2-2.9
				c0.5-1.9-0.5-3.4-2.3-3.8c-0.6-0.1-1.3-0.1-1.9-0.1c-1.9,0.2-3.6,1.1-5.2,2.2c-2.8,1.8-5.3,4-7.6,6.4c-1.3,1.4-2.7,2.3-4.4,2.8
				c-0.4,0.1-0.9,0.3-1.3,0.4c-5.1,1.6-10.4,2.6-15.7,3.3c-3,0.4-6,0.5-9,0.3c-2.1-0.2-3.9-0.8-5.3-2.5c-0.2-0.2-0.4-0.4-0.6-0.6
				c-2.2-2.2-4.8-2.8-7.8-2c-0.4,0.1-0.9,0.3-1.4-0.1c0.1-0.3,0.2-0.6,0.3-0.9c0.4-0.7,0.8-1.4,1.3-2.1c2.2-3.5,4.4-7,6.6-10.6
				c0.9-1.4,1.7-3,2.4-4.5c0.4-0.8,0.7-1.7,0.7-2.7c0.1-2.4-2.7-3.6-4.3-2.5c-0.6,0.4-1.1,0.9-1.5,1.4c-3.1,3.6-5.9,7.4-8.3,11.5
				c-0.4,0.6-0.7,1.2-0.8,1.9c-0.2,1-0.6,1.9-1.2,2.7c-3.3,4.7-6.6,9.5-9.9,14.2c-3.7,5.3-7.3,10.5-11,15.8
				c-0.6,0.9-1.1,1.8-1.6,2.7c-0.2,0.3-0.3,0.8-0.3,1.2c0.1,2.3,3,4.3,4.9,3.2c0.7-0.4,1.4-0.8,1.9-1.5c1.3-1.7,2.6-3.4,3.9-5.2
				c3.5-5.1,7.7-9.7,12.3-13.8c1.3-1.2,2.6-2.3,4-3.3c0.8-0.6,1.6-1.1,2.5-1.6c1-0.6,1.9-0.6,2.8,0.3c0.6,0.6,1.2,1.1,1.8,1.6
				c1.9,1.7,4.1,2.8,6.7,2.8c3.3,0,6.5,0.2,9.8-0.3c2.5-0.4,5-0.7,7.4-1.4c2.4-0.6,4.9-1.4,7.3-2c0.3-0.1,0.6,0,0.9,0
				c0.1,0.7-0.2,1.1-0.4,1.6c-0.5,1.2-0.9,2.4-1.4,3.6c-0.6,1.5-0.7,3-0.5,4.5c0.3,2.9,1.6,5.3,4.2,6.7c1.5,0.8,3.2,1.3,4.9,1.4
				c2.2,0.2,4.4,0,6.5-0.4c2.8-0.6,5.6-1.5,8.2-2.6c4.5-1.9,8.7-4.3,12.9-6.8c1.6-1,3.2-2.1,4.8-3.1
				C806.9,484.6,807.3,484.5,807.6,484.3z M774,566.9c0.4,0,0.7,0.1,1.1,0.1c3.2,0,6.4,0,9.7,0c0.3,0,0.6,0,0.9,0
				c0.4,0,0.7-0.3,0.9-0.7c0.1-0.3,0.2-0.5,0.3-0.8c1.5-4.2,3-8.4,4.6-12.5c1.1-3.1,2.3-6.2,3.4-9.2c0.5-1.3,1.1-2.6,2-3.7
				c1-1.3,2.4-2,4-2.2c1.8-0.2,3,0.8,3,2.7c0,1-0.2,1.9-0.6,2.7c-1,2.8-2,5.6-3.1,8.4c-1.6,4.5-3.3,9-4.9,13.5
				c-0.2,0.5-0.5,0.9-0.3,1.6c0.5,0.3,1.1,0.2,1.6,0.2c2.9,0,5.8,0,8.6,0c2.2,0,2,0,2.7-1.9c2-5.4,4-10.9,6-16.3
				c1.4-4,2.9-7.9,4.3-11.9c0.7-1.8,1-3.7,0.9-5.7c-0.2-2.5-1.6-4.1-4.1-4.5c-2-0.3-3.9-0.3-5.8,0.3c-2.4,0.7-4.6,1.8-6.6,3.3
				c-0.8,0.6-1.6,1.3-2.5,1.9c-0.2,0.2-0.6,0.2-1.1,0.5c0.1-0.7,0.2-1.1,0.3-1.5c0.7-1.9,1.4-3.9,2.1-5.8c2.1-5.8,4.2-11.5,6.3-17.3
				c0.1-0.4,0.2-0.8,0.3-1.3c-0.5-0.1-0.9-0.1-1.3-0.1c-3.2,0-6.4,0-9.7,0c-0.3,0-0.6,0-0.9,0c-0.4,0-0.7,0.2-0.8,0.6
				c-0.1,0.3-0.2,0.5-0.3,0.8c-1.5,4.2-3,8.4-4.6,12.5c-3.5,9.5-6.9,19-10.4,28.5c-1.9,5.3-3.9,10.7-5.8,16
				C774.2,565.6,773.8,566.1,774,566.9z M704.5,550.4c0.7,0,1.3-0.1,1.9-0.1c6,0,12,0,18,0c2,0,1.9,0.2,2.6-2
				c0.6-2.1,1.2-4.2,1.7-6.3c0.5-2.1,0.7-4.2,0.6-6.3c-0.1-2.7-1.3-5-3.3-6.7c-1.5-1.3-3.3-2.1-5.3-2.5c-2.4-0.5-4.7-0.2-7,0.3
				c-3.8,0.8-7.1,2.7-10,5.3c-6.9,6.2-10.6,14.1-11.9,23.2c-0.3,1.8-0.2,3.7,0.3,5.6c0.9,3.4,2.9,5.7,6.2,6.7c2.5,0.7,5,0.8,7.5,0.4
				c2.6-0.4,5.1-1.1,7.3-2.4c4-2.2,7-5.5,9.4-9.3c0.1-0.2,0.1-0.4,0.2-0.8c-0.6-0.1-1-0.2-1.4-0.2c-2.4,0-4.7,0-7.1,0
				c-1.1,0-1.8,0.3-2.5,1.2c-0.5,0.7-1.2,1.2-1.9,1.8c-1.1,0.8-2.4,1.2-3.7,1.1c-1.6-0.1-2.7-1-2.8-2.5
				C703,554.7,703.5,552.5,704.5,550.4z M771.7,529.6c-0.2-0.3-0.3-0.4-0.3-0.5c-0.1-0.1-0.2-0.2-0.4-0.4c-2.5-2-5.4-2.6-8.5-2.4
				c-2.3,0.2-4.5,0.8-6.6,1.9c-2.9,1.5-5.4,3.6-7.6,6c-4.5,5-7.3,10.9-9,17.4c-0.7,2.7-0.9,5.4-0.7,8.2c0.1,1.3,0.4,2.4,0.9,3.6
				c1,2.1,2.5,3.6,4.8,4.3c1.8,0.6,3.6,0.7,5.5,0.5c2.8-0.3,5.4-1.2,7.9-2.4c0.6-0.3,1-0.7,1.2-1.4c0.9-2.6,1.9-5.2,2.8-7.8
				c0.1-0.2,0.3-0.5,0-0.9c-0.5,0.1-1.1,0.3-1.6,0.4c-1.2,0.4-2.5,0.5-3.8,0.3c-1.7-0.2-2.9-1.1-3.5-2.7c-0.4-1-0.5-2-0.3-3.1
				c0.5-3.1,1.6-5.9,3.5-8.3c1.2-1.5,2.6-2.7,4.3-3.5c2.2-1,4.4-1.3,6.7-0.2c0.4,0.2,0.7,0.3,1.2,0.4
				C769.5,535.9,770.6,532.8,771.7,529.6z"/>
			<path class="st5" d="M655.6,467.1c0.5-0.1,0.8-0.2,1.2-0.2c0.5-0.1,1-0.2,1.5-0.1c1.2,0.1,2,0.8,2,2c0,0.7,0,1.5-0.2,2.3
				c-0.3,1.1-0.7,2.1-1.1,3.2c-0.8,2.1-1.6,4.2-2.3,6.3c-0.3,0.8-0.5,1.6-0.6,2.4c-0.2,1.8,0.4,2.7,2.1,3.1c1.3,0.3,2.6,0.4,3.9,0.4
				c2.6,0,5-0.8,7.4-1.7c6.9-2.8,13.5-6.4,19.6-10.7c1-0.7,1.7-1.5,2.3-2.6c7.2-13.7,14.7-27.3,22.6-40.6
				c8.8-15,17.9-29.7,27.3-44.3c5.2-8.1,10.5-16,15.7-24.1c4.2-6.5,8.3-13,12.1-19.7c0.6-1.1,1.2-2.3,1.8-3.4
				c0.3-0.5,0.4-1.1,0.6-1.7c0.1-0.5-0.2-0.9-0.8-0.9c-0.7,0.1-1.5,0.1-2.2,0.2c-1.3,0.2-2.6,0.4-3.9,0.6c-1.2,0.2-2.4,0.3-3.6,0.4
				c-3.6,0.5-7.2,0.9-10.8,1.4c-2.8,0.4-5.6,0.7-8.4,1.1c-2.6,0.4-5.1,0.8-7.7,1.3c-2.3,0.4-4.7,0.8-7,1.2c-3.5,0.6-7,1.2-10.5,1.9
				c-4.3,0.8-8.7,1.7-13,2.7c-6.2,1.4-12.4,2.9-18.6,4.4c-6.9,1.7-13.8,3.8-20.5,6c-2.9,1-5.7,2.1-8.6,3.1c-0.5,0.2-1,0.5-1.5,0.7
				c0.2,0.7,0.6,0.6,1,0.6c0.9,0,1.8-0.1,2.8-0.2c3.3-0.5,6.6-1,9.8-2.1c0.8-0.3,1.7-0.4,2.5-0.6c0.3-0.1,0.6,0,0.7,0.3
				c0,0.3,0,0.7-0.1,0.8c-0.5,0.4-1,0.8-1.6,1c-2.5,0.9-5,1.7-7.6,2.4c-3,0.9-6,1.6-9.1,2c-1.7,0.2-3.4,0.2-5.2,0.2
				c-2.2,0-3.6-2.8-2.2-4.9c0.7-1,1.6-1.9,2.7-2.5c1.7-1,3.5-2.1,5.3-3c4.7-2.3,9.6-4,14.5-5.6c9.1-3,18.3-5.6,27.6-7.8
				c7.9-1.8,15.9-3.5,23.9-4.9c6.2-1.1,12.4-2,18.6-2.9c5.2-0.8,10.4-1.4,15.6-2.1c3.5-0.5,7-0.9,10.5-1.3c3.9-0.4,7.8-0.8,11.7-1.2
				c3-0.3,6.1-0.6,9.1-0.9c3.2-0.3,6.4-0.5,9.6-0.8c2.4-0.2,4.7-0.4,7.1-0.6c1.8-0.1,3.6-0.3,5.3-0.4c4.1-0.3,8.3-0.5,12.4-0.8
				c3.2-0.2,6.4-0.5,9.7-0.6c3.6-0.2,7.2-0.3,10.9-0.5c4.1-0.2,8.3-0.4,12.4-0.6c3-0.1,6-0.1,9-0.2c10.5-0.4,21-0.3,31.4-0.3
				c4.8,0,9.7,0.1,14.5,0.4c4,0.2,7.9,0.5,11.9,0.8c4,0.4,8,0.9,11.9,2.1c1,0.3,2,0.7,2.9,1.1c1,0.4,1.8,1,2.5,1.8
				c1.6,1.8,1.5,4.3,0.4,5.8c-0.3,0.4-0.7,0.8-1,1.2c-1.6,1.7-3.5,2.8-5.5,3.9c-0.6,0.3-1.2,0.5-1.8,0.4c-0.6-0.1-1.1-0.4-1.3-1
				c-0.2-0.5-0.1-1.1,0.3-1.5c0.6-0.5,1.2-1.1,1.9-1.5c1.1-0.7,2.2-1.5,3.1-2.5c0.2-0.2,0.3-0.3,0.5-0.5c0.6-0.8,0.5-1.3-0.4-1.8
				c-0.4-0.2-0.8-0.4-1.3-0.6c-2.3-0.7-4.6-1.1-6.9-1.5c-1.7-0.2-3.4-0.4-5.1-0.6c-0.1,0-0.2,0-0.3,0c-1.6-0.1-3.2-0.3-4.8-0.4
				c-5.4-0.2-10.8-0.5-16.2-0.4c-8.6,0.1-17.3,0-25.9,0.1c-1.7,0-3.4,0.2-5.2,0.3c-1.8,0.1-3.7,0-5.5,0.1c-3.6,0.1-7.3,0.2-10.9,0.4
				c-2.1,0.2-4.1,0.2-6.2,0.3c-2.9,0.2-5.8,0.4-8.8,0.6c-0.1,0-0.2,0-0.3,0c-2.8,0.1-5.6,0.2-8.4,0.4c-2.4,0.2-4.8,0.4-7.2,0.6
				c-0.1,0-0.2,0-0.3,0c-3,0.1-6,0.4-8.9,0.7c-2.1,0.2-4.1,0.3-6.2,0.4c-1.9,0.2-3.9,0.4-5.8,0.6c-1.3,0.1-2.6,0.3-3.9,0.4
				c-1.7,0.1-3.4,0.3-5.2,0.4c-1.3,0.1-2.5,0.3-3.8,0.4c-0.5,0.1-0.8,0.4-1,0.9c0,0.1-0.1,0.2-0.1,0.3c-0.3,2.6-1.5,4.8-2.7,7
				c-3.2,5.4-6.3,10.8-9.7,16.1c-8,12.8-16.2,25.4-24.2,38.2c-11.5,18.1-22.7,36.3-33.6,54.8c-5.6,9.6-11.1,19.4-16.3,29.2
				c-6,11.3-11.9,22.7-17.5,34.2c-4.3,8.8-8.4,17.6-12,26.7c-1.4,3.6-2.9,7.2-3.8,11c-0.3,1.2-0.4,2.5-0.6,3.8c0,0.3,0.1,0.7,0.1,1
				c1.1,0.6,2.1,0.3,3-0.1c1-0.4,2-0.5,3.1-0.4c1.5,0.1,2.2,0.8,2.2,2.3c0.1,1.2-0.3,2.2-1.5,2.7c-2.5,1.2-5.1,2.2-7.9,2.1
				c-2.5-0.1-5.7-1.7-6.1-5.6c-0.3-3.2-0.2-6.4,0.5-9.6c0.9-4.2,2.4-8.2,3.8-12.2c3.2-8.6,6.8-17,10.6-25.2
				c3.4-7.2,6.8-14.4,10.2-21.6c1.6-3.4,3.4-6.7,5-10c0.3-0.5,0.5-1,0.7-1.5c-0.4-0.5-0.7-0.3-1-0.1c-2.1,1.3-4.1,2.6-6.2,3.8
				c-4,2.4-8,4.6-12.3,6.5c-1.8,0.8-3.6,1.5-5.6,1.8c-2.2,0.3-4.5,0.5-6.7-0.2c-3.4-1-5.6-3.8-5.9-7.4c-0.2-2.6,0.4-5.1,1.4-7.5
				c0.3-0.6,0.7-1.2,0.7-2c-0.5-0.3-0.8,0-1.1,0.2c-1.8,1.3-3.6,2.7-5.5,4c-5.7,4.1-11.3,8.3-17,12.4c-3.1,2.3-6.4,4.5-9.9,6.1
				c-1.2,0.5-2.4,0.9-3.6,1.3c-1.1,0.4-2.3,0.2-3.4-0.3c-1.2-0.6-2-1.5-2-3c0-1.3-0.1-2.6,0.3-3.8c0.1-0.2,0-0.4,0-0.8
				c-0.4,0.1-0.7,0-0.9,0.1c-0.9,0.4-1.7,0.9-2.6,1.4c-4.1,2.2-8.4,4.1-12.9,5.3c-2.6,0.7-5.3,1.1-8,0.9c-2.2-0.1-4.3-0.7-6.2-2
				c-1.8-1.2-2.8-3-3.2-5.2c-0.3-2.1-0.2-4.1,0.6-6.1c0.4-1,0.8-2.1,1.2-3.1c0.2-0.4,0.3-0.8,0.5-1.2c-0.4-0.5-0.8-0.3-1.2-0.2
				c-1.9,0.6-3.9,1.2-5.8,1.7c-2.9,0.8-6,1.3-9,1.7c-3.6,0.5-7.1,0.4-10.7,0.3c-1.8-0.1-3.4-1-4.9-2c-0.7-0.5-1.3-1.1-2-1.7
				c-0.6-0.5-1.1-1.2-2-1.4c-1.1,0.1-2,0.7-2.8,1.3c-1.4,1-2.8,2.1-4.1,3.2c-4.3,3.8-8.3,7.9-11.8,12.6c-1.5,2-2.9,4.1-4.4,6.1
				c-0.4,0.6-1,1.2-1.4,1.7c-0.6,0.7-1.5,1.1-2.4,1.3c-0.5,0.1-1-0.1-1.5-0.3c-2.2-0.8-3-2.9-1.9-5c0.5-1,1.1-1.9,1.8-2.8
				c4.4-6.3,8.7-12.5,13.1-18.8c2.5-3.5,4.9-7.1,7.4-10.7c0.5-0.7,0.9-1.5,1.1-2.4c0.1-0.8,0.5-1.6,0.9-2.3c2.4-4,5.2-7.7,8.2-11.3
				c0.5-0.6,1.1-1.2,1.9-1.5c1.9-0.9,4.3,0.7,4,2.8c-0.1,0.5-0.1,0.9-0.3,1.4c-0.5,1.2-1,2.4-1.7,3.5c-2.5,4.1-5,8.2-7.5,12.3
				c-0.5,0.9-1.1,1.8-1.6,2.7c-0.1,0.2-0.2,0.5-0.3,0.7c0.4,0.5,0.8,0.4,1.2,0.3c1.4-0.6,2.8-0.4,4.3-0.2c0.7,0.1,1.5,0.4,2.1,0.8
				c0.9,0.6,1.7,1.2,2.4,2c1.5,1.6,3.3,2.3,5.4,2.5c3.8,0.3,7.6-0.1,11.4-0.6c4.1-0.6,8.2-1.4,12.1-2.6c1.3-0.4,2.5-0.8,3.8-1.3
				c0.9-0.3,1.6-0.8,2.3-1.5c1.7-1.8,3.4-3.5,5.3-5c1.3-1,2.6-1.9,4-2.8c1.2-0.8,2.6-1.3,4-1.6c1-0.2,2-0.2,2.9,0.3
				c1,0.5,1.5,1.2,1.6,2.3c0.1,1.3-0.2,2.6-0.9,3.7c-0.9,1.6-2,3-3.3,4.3c-3.6,3.6-7.6,6.8-12.2,9.2c-0.8,0.4-1.7,0.8-2.5,1.1
				c-0.7,0.2-1.1,0.7-1.4,1.4c-0.4,1.2-0.7,2.5-0.7,3.8c0,1.9,0.3,2.6,2.1,3.5c1.5,0.7,3.1,0.8,4.7,0.7c4.1-0.2,7.9-1.3,11.7-2.7
				c4.8-1.8,9.4-4.2,13.9-6.7c0.9-0.5,1.6-1.2,2.2-1.9c5.6-6.1,11.9-11.4,19-15.8c2.5-1.5,5-2.9,7.7-3.9c2.5-0.9,5-1.2,7.6-0.9
				c2.1,0.3,3.8,1.2,4.8,3.3c0.2,0.4,0.3,0.8,0.4,1.2C655.3,466.2,655.5,466.5,655.6,467.1z M649,472.6c-0.7-0.8-0.4-1.4,0.1-2
				c0.3-0.3,0.6-0.7,0.8-1.1c0.2-0.4,0-0.9-0.5-0.9c-0.6,0-1.2,0-1.7,0.2c-2.1,0.6-4.1,1.5-6,2.6c-4.6,2.6-8.8,5.7-12.9,9.1
				c-3.3,2.8-6.4,5.9-9.6,8.8c-0.6,0.6-1.1,1.3-1.7,2c-0.1,0.1-0.1,0.4-0.2,0.8c0.6-0.2,1.1-0.3,1.5-0.5c2.2-1.2,4.4-2.3,6.6-3.5
				c5.9-3.5,11.6-7.3,17.3-11.2c1-0.7,2-1.4,3-2.1C646.8,474.1,647.8,473.4,649,472.6z M597.3,467.9c-0.3,0-0.5-0.1-0.7,0
				c-0.5,0.2-0.9,0.5-1.3,0.8c-2.2,1.6-4.2,3.4-6,5.5c-0.7,0.8-1.4,1.6-2,2.4c-0.2,0.2-0.4,0.5,0,0.8c0.3-0.1,0.6-0.2,0.9-0.4
				c0.9-0.7,1.9-1.4,2.8-2.1c2.1-1.6,3.9-3.4,5.6-5.4C596.8,469.1,597.2,468.7,597.3,467.9z"/>
			<path class="st5" d="M545.1,336.3c0.2,4.2-0.9,8.3-2.1,12.3c-2.2,7.3-5.2,14.2-8.5,21c-5.2,10.4-11.5,20.1-18.1,29.6
				c-4,5.6-8.1,11.1-12.4,16.5c-1.5,1.8-3,3.7-4.5,5.6c-0.5,0.6-1.1,1-1.9,1.2c-0.7,0.2-1.3-0.4-1.1-1.1c0.1-0.6,0.4-1.1,0.7-1.6
				c1-1.3,2-2.6,3-3.9c5.6-6.9,10.9-14,15.8-21.4c5.8-8.6,11-17.5,15.5-26.9c3.5-7.3,6.4-14.8,8.3-22.7c0.9-3.7,1.2-7.4,0.6-11.2
				c-0.4-2.2-1.4-4-3.6-4.8c-0.4-0.1-0.8-0.3-1.2-0.3c-2.1-0.1-4.1,0-6.2,0.6c-3.7,1-7.2,2.4-10.6,4.1c-7.4,3.7-14.4,8.2-21.1,13.1
				c-11.1,8.1-21.5,17-31.3,26.6c-11.6,11.3-22.5,23.4-32.5,36.2c-9.2,11.7-17.6,23.8-25.1,36.7c-4.7,8-9,16.2-12.7,24.8
				c-2.8,6.4-5.2,13-6.9,19.9c-0.9,3.8-1.6,7.7-1.5,11.7c0,2.1,0.3,4.1,1,6.1c0.4,1.2,1,2.2,1.7,3.3c1.2,1.7,2.8,2.7,4.7,3
				c1.9,0.4,3.9,0.5,5.8,0.2c3.8-0.4,7.3-1.5,10.8-2.9c4.4-1.8,8.6-3.9,12.8-6.2c10.1-5.7,19.7-12.2,29.1-18.9
				c15-10.8,29.6-22.1,44.1-33.5c4.7-3.7,9.4-7.4,14.1-11.1c1.7-1.4,3.5-2.7,5.3-4c0.6-0.4,1.3-0.8,1.9-1.2c0.9-0.5,1.9-0.7,3-0.7
				c1,0,1.8,0.4,2.3,1.3c0.4,0.7,0.8,1.5,0.9,2.3c0.4,1.9,0.5,3.8,0.3,5.8c-0.6,6.8-2.6,13.2-4.8,19.6c-2.1,6.1-4.7,12-7.5,17.8
				c-3.5,7.1-7.2,14-11.3,20.8c-4.8,7.9-9.8,15.6-15.4,23c-6.1,8.1-12.8,15.7-20.4,22.4c-4.8,4.2-9.8,8.1-15.3,11.1
				c-2.4,1.3-5,2.4-7.7,2.9c-1.7,0.3-3.3,0.4-4.9-0.2c-2.4-0.9-3.6-2.7-3.8-5.2c-0.1-1.4,0.2-2.7,0.6-4c0.8-2.3,2.1-4.3,3.5-6.2
				c2-2.7,4.3-5.2,6.7-7.6c9.6-9.5,20.4-17.3,32.1-24.1c4.4-2.5,8.9-5,13.5-7.1c1.3-0.6,2.2-1.4,2.9-2.6c4.4-7,8.6-14,12.5-21.3
				c5-9.5,9.5-19.2,12.7-29.5c1.1-3.5,2.2-7.1,2.8-10.7c0.2-1.4,0.2-2.8,0.3-4.2c0-0.3,0-0.7-0.1-1c-0.2-1-1-1.5-1.9-1.1
				c-0.5,0.2-1,0.6-1.4,0.9c-1.3,1.1-2.6,2.1-3.9,3.2c-7.7,6.5-15.3,13-23,19.4c-8,6.6-16.1,13.1-24.4,19.4
				c-7.7,5.9-15.4,11.7-23.3,17.3c-7.2,5-14.5,9.8-22.2,13.9c-4.8,2.6-9.7,4.9-14.9,6.5c-2.8,0.8-5.6,1.4-8.5,1.3
				c-0.9,0-1.8,0-2.8,0c-1.4,0.1-2.7-0.2-4-0.7c-1.6-0.6-3.2-1.3-4.6-2.3c-2.6-1.8-4.3-4.1-4.8-7.2c-0.5-3-0.9-6-1-9.1
				c-0.1-5.1,0.7-10,2-15c1.4-5.5,3.4-10.9,5.6-16.1c5.6-13.3,12.5-25.9,20.3-38c8-12.4,16.9-24.2,26.3-35.6
				c6.1-7.4,12.7-14.4,19.4-21.3c10.2-10.2,20.9-19.8,32.4-28.5c7.5-5.6,15.1-10.9,23.4-15.4c5.1-2.8,10.3-5.2,15.9-6.7
				c1.9-0.5,3.9-1,5.9-1.2c2.6-0.3,5.2,0,7.5,1.3c2.5,1.3,4.1,3.5,5,6.2c0.1,0.4,0.2,0.8,0.2,1.2C545,333.5,545.1,334.9,545.1,336.3
				z M441.1,556.2c0.5,0,0.9,0,1.2-0.1c1.5-0.4,2.9-1.1,4.3-1.8c4.4-2.4,8.5-5.2,12.3-8.4c3.8-3.1,7.3-6.5,10.8-9.9
				c1.9-1.9,3.9-3.8,5.7-5.9c3.8-4.6,7.4-9.3,11.1-13.9c0.5-0.6,0.9-1.2,1.3-1.9c0.1-0.2,0.1-0.4,0.1-0.7c-0.7-0.1-1.2,0.2-1.7,0.5
				c-2.9,1.7-5.8,3.4-8.7,5.1c-9.5,5.9-18.3,12.7-26,20.8c-2.4,2.6-4.8,5.2-6.9,8.1c-1.3,1.8-2.4,3.7-3.2,5.8
				C441.2,554.6,440.8,555.3,441.1,556.2z"/>
			<path class="st5" d="M807.6,484.3c-0.3,0.2-0.7,0.3-1,0.5c-1.6,1-3.2,2.1-4.8,3.1c-4.2,2.5-8.4,4.9-12.9,6.8
				c-2.7,1.1-5.4,2-8.2,2.6c-2.1,0.4-4.3,0.6-6.5,0.4c-1.7-0.1-3.4-0.6-4.9-1.4c-2.6-1.4-3.9-3.7-4.2-6.7c-0.1-1.5,0-3.1,0.5-4.5
				c0.5-1.2,0.9-2.4,1.4-3.6c0.2-0.5,0.6-0.9,0.4-1.6c-0.3,0-0.6-0.1-0.9,0c-2.4,0.7-4.9,1.4-7.3,2c-2.4,0.6-4.9,1-7.4,1.4
				c-3.3,0.5-6.5,0.4-9.8,0.3c-2.6,0-4.8-1.1-6.7-2.8c-0.6-0.5-1.2-1.1-1.8-1.6c-0.9-0.9-1.8-0.9-2.8-0.3c-0.8,0.5-1.7,1-2.5,1.6
				c-1.4,1.1-2.7,2.2-4,3.3c-4.6,4.1-8.7,8.7-12.3,13.8c-1.2,1.8-2.6,3.5-3.9,5.2c-0.5,0.7-1.2,1-1.9,1.5c-1.9,1.1-4.8-0.9-4.9-3.2
				c0-0.4,0.1-0.8,0.3-1.2c0.5-0.9,1-1.9,1.6-2.7c3.6-5.3,7.3-10.6,11-15.8c3.3-4.7,6.6-9.5,9.9-14.2c0.6-0.8,1-1.7,1.2-2.7
				c0.1-0.7,0.5-1.3,0.8-1.9c2.4-4.1,5.2-7.9,8.3-11.5c0.4-0.5,1-1,1.5-1.4c1.6-1.1,4.4,0.1,4.3,2.5c0,1-0.3,1.9-0.7,2.7
				c-0.8,1.5-1.6,3-2.4,4.5c-2.2,3.5-4.4,7-6.6,10.6c-0.4,0.7-0.9,1.4-1.3,2.1c-0.2,0.3-0.2,0.6-0.3,0.9c0.5,0.4,0.9,0.2,1.4,0.1
				c3-0.8,5.6-0.2,7.8,2c0.2,0.2,0.4,0.4,0.6,0.6c1.4,1.6,3.3,2.3,5.3,2.5c3,0.3,6,0.1,9-0.3c5.3-0.6,10.6-1.7,15.7-3.3
				c0.4-0.1,0.9-0.3,1.3-0.4c1.8-0.5,3.2-1.5,4.4-2.8c2.2-2.4,4.8-4.6,7.6-6.4c1.6-1,3.3-1.9,5.2-2.2c0.6-0.1,1.3-0.1,1.9,0.1
				c1.9,0.4,2.8,1.9,2.3,3.8c-0.3,1-0.7,2-1.2,2.9c-0.7,1.4-1.7,2.5-2.8,3.6c-3.6,3.7-7.7,6.9-12.3,9.3c-0.9,0.4-1.8,0.8-2.7,1.2
				c-0.6,0.2-1.1,0.6-1.3,1.3c-0.4,1.4-0.8,2.7-0.8,4.1c0,1.6,0.7,2.6,2.2,3.3c1.6,0.7,3.2,0.8,4.9,0.7c3.7-0.2,7.3-1.2,10.8-2.4
				c3.7-1.3,7.2-2.9,10.6-4.7c3.6-2,7.1-4.1,10.6-6.2c0.8-0.5,1.4-1.1,2-1.9c3.4-4.9,7.6-9.1,12.5-12.5c1.6-1.1,3.4-2,5.3-2.4
				c0.9-0.2,1.8-0.2,2.7,0.2c1.1,0.4,1.7,1.2,1.8,2.4c0.1,0.9,0,1.7-0.4,2.6c-0.7,1.6-1.6,3-2.7,4.3c-2.8,3-5.8,5.7-9.2,8
				c-1.3,0.8-2.6,1.6-3.9,2.3c-0.9,0.5-1.8,0.9-2.7,1.2c-0.7,0.2-1.2,0.7-1.3,1.4c-0.2,1-0.5,2-0.7,3.1c-0.1,0.4-0.1,0.8,0,1.2
				c0.1,1.4,0.8,2.4,2.1,3c1.5,0.7,3.1,0.8,4.7,0.7c3.4-0.2,6.6-1,9.8-2c3.8-1.2,7.4-2.9,11-4.7c4.1-2.1,8.1-4.4,12-7
				c1.9-1.3,3.9-2.5,5.6-4.1c0.5-0.5,1.3-0.8,1.9-1.1c0.2-0.1,0.4-0.1,0.7-0.1c0.7,0,1.1,0.7,0.7,1.2c-0.3,0.5-0.8,0.9-1.2,1.3
				c-1.5,1.2-2.9,2.4-4.5,3.6c-6,4.5-12.3,8.7-19,12.1c-4.2,2.2-8.5,4-13.1,4.9c-2.2,0.4-4.4,0.7-6.7,0.5c-2.1-0.2-4.1-0.8-5.8-2
				c-1.9-1.3-3-3.1-3.2-5.4c-0.2-1.7-0.3-3.4,0.3-5.1c0.1-0.2,0.1-0.5,0.1-0.7C807.9,484.6,807.8,484.5,807.6,484.3z M776,477.6
				c0.6-0.2,0.7-0.2,0.9-0.3c1.5-1.1,3-2.2,4.4-3.4c1.8-1.5,3.4-3.2,4.8-5c0.2-0.2,0.3-0.6,0.5-1.1c-0.5,0.1-0.8,0.1-1,0.3
				c-3.6,2.3-6.5,5.2-9.1,8.5C776.3,476.8,776.3,477.1,776,477.6z M829,468c-0.4,0-0.6-0.1-0.8-0.1c-0.4,0.2-0.7,0.4-1,0.6
				c-3.2,2.2-5.9,5-8.4,8c-0.2,0.2-0.4,0.5-0.1,0.9c0.2-0.1,0.5-0.1,0.7-0.3c1.1-0.8,2.1-1.6,3.2-2.4c2.1-1.6,3.9-3.4,5.6-5.5
				C828.5,469,828.7,468.6,829,468z"/>
			<path class="st5" d="M774,566.9c-0.2-0.8,0.1-1.3,0.3-1.9c1.9-5.3,3.9-10.7,5.8-16c3.5-9.5,6.9-19,10.4-28.5
				c1.5-4.2,3-8.4,4.6-12.5c0.1-0.3,0.2-0.6,0.3-0.8c0.2-0.3,0.4-0.5,0.8-0.6c0.3,0,0.6,0,0.9,0c3.2,0,6.4,0,9.7,0
				c0.4,0,0.8,0.1,1.3,0.1c-0.1,0.5-0.2,0.9-0.3,1.3c-2.1,5.8-4.2,11.5-6.3,17.3c-0.7,1.9-1.4,3.8-2.1,5.8c-0.1,0.4-0.2,0.9-0.3,1.5
				c0.5-0.2,0.8-0.3,1.1-0.5c0.8-0.6,1.6-1.3,2.5-1.9c2-1.5,4.2-2.6,6.6-3.3c1.9-0.5,3.9-0.6,5.8-0.3c2.4,0.4,3.9,2,4.1,4.5
				c0.2,2-0.2,3.9-0.9,5.7c-1.4,4-2.9,7.9-4.3,11.9c-2,5.4-4,10.9-6,16.3c-0.7,1.9-0.6,1.9-2.7,1.9c-2.9,0-5.8,0-8.6,0
				c-0.6,0-1.1,0.1-1.6-0.2c-0.3-0.6,0.1-1.1,0.3-1.6c1.6-4.5,3.3-9,4.9-13.5c1-2.8,2-5.6,3.1-8.4c0.3-0.9,0.6-1.8,0.6-2.7
				c0-1.9-1.2-2.9-3-2.7c-1.6,0.2-3,0.9-4,2.2c-0.9,1.1-1.5,2.4-2,3.7c-1.1,3.1-2.3,6.2-3.4,9.2c-1.5,4.2-3,8.4-4.6,12.5
				c-0.1,0.3-0.2,0.5-0.3,0.8c-0.2,0.4-0.5,0.7-0.9,0.7c-0.3,0-0.6,0-0.9,0c-3.2,0-6.4,0-9.7,0C774.8,567,774.4,566.9,774,566.9z"/>
			<path class="st5" d="M704.5,550.4c-1,2.1-1.4,4.3-1.2,6.6c0.2,1.6,1.3,2.4,2.8,2.5c1.4,0.1,2.6-0.2,3.7-1.1
				c0.7-0.5,1.4-1.1,1.9-1.8c0.7-0.9,1.4-1.3,2.5-1.2c2.4,0.1,4.7,0,7.1,0c0.4,0,0.9,0.1,1.4,0.2c-0.1,0.3-0.1,0.6-0.2,0.8
				c-2.5,3.8-5.5,7.1-9.4,9.3c-2.3,1.3-4.7,2.1-7.3,2.4c-2.5,0.4-5,0.3-7.5-0.4c-3.4-1-5.3-3.3-6.2-6.7c-0.5-1.8-0.6-3.8-0.3-5.6
				c1.3-9.1,5-17,11.9-23.2c2.9-2.6,6.2-4.5,10-5.3c2.3-0.5,4.6-0.8,7-0.3c2,0.4,3.7,1.2,5.3,2.5c2,1.8,3.2,4,3.3,6.7
				c0.1,2.1,0,4.2-0.6,6.3c-0.5,2.1-1.1,4.2-1.7,6.3c-0.7,2.2-0.6,2-2.6,2c-6,0-12,0-18,0C705.8,550.3,705.1,550.4,704.5,550.4z
				 M707.1,543.5c0.5,0.2,0.8,0.3,1,0.3c2.6,0,5.2,0,7.8,0c0.7,0,1.2-0.3,1.4-1c0.5-1.6,0.9-3.3,0.8-5c-0.1-1.6-1-2.6-2.6-2.7
				c-1.7-0.1-3.2,0.4-4.4,1.6C709,538.6,708,540.9,707.1,543.5z"/>
			<path class="st5" d="M771.7,529.6c-1.2,3.2-2.3,6.4-3.5,9.6c-0.5-0.2-0.9-0.3-1.2-0.4c-2.3-1.1-4.5-0.8-6.7,0.2
				c-1.7,0.8-3.1,2-4.3,3.5c-1.9,2.4-3,5.2-3.5,8.3c-0.2,1.1,0,2.1,0.3,3.1c0.6,1.6,1.8,2.5,3.5,2.7c1.3,0.1,2.5,0.1,3.8-0.3
				c0.5-0.2,1.1-0.3,1.6-0.4c0.4,0.3,0.1,0.6,0,0.9c-0.9,2.6-1.9,5.2-2.8,7.8c-0.2,0.7-0.6,1.1-1.2,1.4c-2.5,1.2-5.1,2.1-7.9,2.4
				c-1.8,0.2-3.7,0.1-5.5-0.5c-2.2-0.7-3.8-2.2-4.8-4.3c-0.5-1.1-0.8-2.3-0.9-3.6c-0.2-2.8,0-5.5,0.7-8.2c1.7-6.5,4.5-12.4,9-17.4
				c2.2-2.4,4.7-4.5,7.6-6c2.1-1.1,4.3-1.8,6.6-1.9c3.1-0.2,6,0.4,8.5,2.4c0.1,0.1,0.3,0.2,0.4,0.4
				C771.5,529.2,771.5,529.3,771.7,529.6z"/>
			<path class="st5" d="M649,472.6c-1.2,0.9-2.2,1.6-3.2,2.2c-1,0.7-2,1.4-3,2.1c-5.7,3.9-11.4,7.7-17.3,11.2
				c-2.1,1.3-4.4,2.4-6.6,3.5c-0.4,0.2-0.8,0.3-1.5,0.5c0.1-0.4,0.1-0.7,0.2-0.8c0.5-0.7,1-1.4,1.7-2c3.2-3,6.3-6,9.6-8.8
				c4-3.4,8.3-6.5,12.9-9.1c1.9-1.1,3.9-1.9,6-2.6c0.5-0.2,1.1-0.2,1.7-0.2c0.4,0,0.7,0.5,0.5,0.9c-0.2,0.4-0.5,0.8-0.8,1.1
				C648.5,471.1,648.2,471.7,649,472.6z"/>
			<path class="st5" d="M597.3,467.9c0,0.8-0.5,1.2-0.8,1.6c-1.7,2-3.5,3.8-5.6,5.4c-0.9,0.7-1.8,1.4-2.8,2.1
				c-0.3,0.2-0.6,0.3-0.9,0.4c-0.3-0.4-0.1-0.6,0-0.8c0.7-0.8,1.3-1.6,2-2.4c1.8-2,3.8-3.9,6-5.5c0.4-0.3,0.9-0.6,1.3-0.8
				C596.8,467.9,597,467.9,597.3,467.9z"/>
			<path class="st5" d="M441.1,556.2c-0.3-1,0.1-1.6,0.3-2.2c0.8-2.1,1.9-4,3.2-5.8c2.1-2.9,4.4-5.5,6.9-8.1
				c7.7-8.2,16.5-14.9,26-20.8c2.8-1.8,5.8-3.4,8.7-5.1c0.5-0.3,1-0.6,1.7-0.5c0,0.3,0,0.5-0.1,0.7c-0.4,0.6-0.8,1.3-1.3,1.9
				c-3.7,4.7-7.4,9.3-11.1,13.9c-1.7,2.1-3.7,4-5.7,5.9c-3.5,3.4-7,6.8-10.8,9.9c-3.9,3.2-7.9,6-12.3,8.4c-1.4,0.7-2.8,1.4-4.3,1.8
				C442,556.2,441.6,556.2,441.1,556.2z"/>
			<path class="st5" d="M776,477.6c0.2-0.6,0.3-0.8,0.5-1c2.7-3.3,5.6-6.3,9.1-8.5c0.2-0.1,0.5-0.1,1-0.3c-0.2,0.5-0.3,0.9-0.5,1.1
				c-1.4,1.9-3,3.5-4.8,5c-1.4,1.2-2.9,2.3-4.4,3.4C776.8,477.4,776.6,477.4,776,477.6z"/>
			<path class="st5" d="M829,468c-0.3,0.5-0.5,0.9-0.8,1.3c-1.7,2-3.5,3.9-5.6,5.5c-1.1,0.8-2.1,1.6-3.2,2.4
				c-0.2,0.2-0.5,0.2-0.7,0.3c-0.3-0.4-0.1-0.7,0.1-0.9c2.5-3,5.2-5.8,8.4-8c0.3-0.2,0.7-0.5,1-0.6C828.4,467.9,828.6,468,829,468z"
				/>
			<path class="st5" d="M707.1,543.5c0.9-2.7,2-5,3.9-6.8c1.3-1.2,2.7-1.7,4.4-1.6c1.6,0.1,2.5,1,2.6,2.7c0.1,1.7-0.3,3.4-0.8,5
				c-0.2,0.7-0.7,1-1.4,1c-2.6,0-5.2,0-7.8,0C707.8,543.9,707.6,543.7,707.1,543.5z"/>
		</g>
	</g>
</g>
<path class="st2" d="M980.1,0.4c0,0-35.8,35.8-15.6,89S929.8,231,929.8,231s0.6-0.1,1.7-0.3c73.6-13,110.2-97.2,69.2-159.7
	C985.6,47.8,973.1,20.5,980.1,0.4z"/>
<path class="st3" d="M980.1,0.4c0,0-20.2,43.9,0,79.8s3.5,136.4-50.3,150.8"/>
<path class="st2" d="M1044,145.3c0,0-40.9-6.5-44.6,30.1s-78.6,41.7-78.6,41.7l1.4,0.9c61.8,40.6,121,25.9,112-28
	C1030.9,170,1031.1,149.9,1044,145.3z"/>
<path class="st6" d="M1044,145.3c0,0-40.9-6.5-44.6,30.1s-78.6,41.7-78.6,41.7l1.4,0.9c61.8,40.6,121,25.9,112-28
	C1030.9,170,1031.1,149.9,1044,145.3z"/>
<path class="st3" d="M1044,145.3c0,0-31.7,7-29.1,35.8s-47.1,63.5-94.1,36"/>
<path class="st3" d="M246.7,279.8c0,0-13.3-45,2.5-78.1c6.7-13.9,8.7-29.5,5.8-44.6c-1.5-7.2-3.6-14.2-6.3-20.9"/>
<path class="st2" d="M258.4,115.2c0,5.5-10,21.5-10,21.5s-10-16-10-21.5s4.5-10,10-10S258.4,109.7,258.4,115.2z"/>
<path class="st2" d="M274.9,145.7c-3,4.6-20.1,12.6-20.1,12.6s0.3-18.9,3.3-23.5c2.8-4.8,8.9-6.4,13.7-3.6s6.4,8.9,3.6,13.7
	C275.3,145.2,275.1,145.5,274.9,145.7z"/>
<path class="st2" d="M274.2,198c-4.9,2.5-23.7,0.8-23.7,0.8s9.8-16.1,14.7-18.6c4.8-2.7,10.9-1,13.6,3.8s1,10.9-3.8,13.6
	C274.7,197.7,274.5,197.9,274.2,198L274.2,198z"/>
<path class="st2" d="M264.8,237.3c-4.4,3.3-23.2,4.8-23.2,4.8s6.9-17.5,11.4-20.8c4.3-3.5,10.6-2.9,14.1,1.4
	c3.5,4.3,2.9,10.6-1.4,14.1C265.3,237,265,237.2,264.8,237.3z"/>
<path class="st2" d="M233.9,159.4c4,3.8,22.4,7.8,22.4,7.8s-4.5-18.3-8.5-22.1c-3.8-4-10.1-4.2-14.1-0.5c-4,3.8-4.2,10.1-0.5,14.1
	C233.4,159,233.6,159.2,233.9,159.4L233.9,159.4z"/>
<path class="st2" d="M223.4,205.6c4.9,2.5,23.7,0.8,23.7,0.8s-9.8-16.1-14.7-18.6c-5-2.3-11,0-13.2,5
	C217,197.5,218.9,203.1,223.4,205.6L223.4,205.6z"/>
<path class="st2" d="M219.4,251.9c4.4,3.3,23.2,4.8,23.2,4.8s-6.9-17.5-11.4-20.8c-4.6-3.1-10.8-1.8-13.9,2.8
	C214.6,242.9,215.4,248.7,219.4,251.9z"/>
<linearGradient id="SVGID_1_" gradientUnits="userSpaceOnUse" x1="687.64" y1="940.42" x2="687.64" y2="456.02" gradientTransform="matrix(1 0 0 1 -56.59 -343.12)">
	<stop  offset="0" style="stop-color:#808080;stop-opacity:0.25"/>
	<stop  offset="0.54" style="stop-color:#808080;stop-opacity:0.12"/>
	<stop  offset="1" style="stop-color:#808080;stop-opacity:0.1"/>
</linearGradient>
<path class="st7" d="M1072.4,541.5h-85.1c2-3.9,3-8.3,3-12.7V141.4c0-15.7-12.8-28.5-28.5-28.5H303.2c-15.7,0-28.5,12.8-28.5,28.5
	v387.5c0,4.4,1,8.7,3,12.7h-88.1c-4.2,0-7.5,3.4-7.5,7.5l0,0v6.1c0,23.3,18.9,42.1,42.1,42.1l0,0h813.7c23.3,0,42.1-18.9,42.1-42.1
	l0,0V549C1080,544.9,1076.6,541.5,1072.4,541.5C1072.5,541.5,1072.4,541.5,1072.4,541.5z M548.1,565.6l-7.3-8.3h181.1l-8.1,8.3
	H548.1z"/>
<path class="st8" d="M306,118.3h652.9c12.8,0,23.3,10.4,23.3,23.3v387.9c0,12.8-10.4,23.3-23.3,23.3H306
	c-12.8,0-23.3-10.4-23.3-23.3V141.6C282.7,128.8,293.2,118.3,306,118.3z"/>
<rect x="297.5" y="181.7" class="st9" width="668.5" height="354.9"/>
<circle class="st5" cx="631.7" cy="150.7" r="5.9"/>
<path class="st8" d="M734.9,537.3l-23,23.6h-162l-20.8-23.6H199.5c-4.1,0-7.4,3.3-7.4,7.4v5.9c0,22.7,18.4,41.2,41.2,41.2
	c0,0,0,0,0.1,0h795.2c22.7,0,41.2-18.4,41.2-41.2l0,0v-5.9c0-4.1-3.3-7.4-7.4-7.4H734.9z"/>
<rect x="338.3" y="208.7" class="st5" width="182.8" height="137.7"/>
<rect x="356.2" y="220.6" class="st0" width="60.9" height="34.4"/>
<rect x="431.7" y="220.6" class="st10" width="71.5" height="7.9"/>
<rect x="431.7" y="233.9" class="st10" width="50.3" height="7.9"/>
<rect x="431.7" y="247.1" class="st10" width="71.5" height="7.9"/>
<rect x="356.2" y="260.4" class="st10" width="147" height="8"/>
<rect x="356.2" y="273.6" class="st10" width="147" height="8"/>
<rect x="356.2" y="286.9" class="st10" width="147" height="8"/>
<rect x="356.2" y="300.1" class="st10" width="135.1" height="8"/>
<rect x="356.2" y="313.3" class="st10" width="147" height="8"/>
<rect x="356.2" y="326.6" class="st10" width="147" height="8"/>
<rect x="539.6" y="208.7" class="st5" width="182.8" height="137.7"/>
<rect x="557.5" y="220.6" class="st0" width="60.9" height="34.4"/>
<rect x="633" y="220.6" class="st10" width="71.5" height="7.9"/>
<rect x="633" y="233.9" class="st10" width="50.3" height="7.9"/>
<rect x="633" y="247.1" class="st10" width="71.5" height="7.9"/>
<rect x="557.5" y="260.4" class="st10" width="147" height="8"/>
<rect x="557.5" y="273.6" class="st10" width="147" height="8"/>
<rect x="557.5" y="286.9" class="st10" width="147" height="8"/>
<rect x="557.5" y="300.1" class="st10" width="135.1" height="8"/>
<rect x="557.5" y="313.3" class="st10" width="147" height="8"/>
<rect x="557.5" y="326.6" class="st10" width="147" height="8"/>
<rect x="740.9" y="208.7" class="st5" width="182.8" height="137.7"/>
<rect x="758.8" y="220.6" class="st0" width="60.9" height="34.4"/>
<rect x="834.3" y="220.6" class="st10" width="71.5" height="7.9"/>
<rect x="834.3" y="233.9" class="st10" width="50.3" height="7.9"/>
<rect x="834.3" y="247.1" class="st10" width="71.5" height="7.9"/>
<rect x="758.8" y="260.4" class="st10" width="147" height="8"/>
<rect x="758.8" y="273.6" class="st10" width="147" height="8"/>
<rect x="758.8" y="286.9" class="st10" width="147" height="8"/>
<rect x="758.8" y="300.1" class="st10" width="135.1" height="8"/>
<rect x="758.8" y="313.3" class="st10" width="147" height="8"/>
<rect x="758.8" y="326.6" class="st10" width="147" height="8"/>
<rect x="338.3" y="363.7" class="st5" width="182.8" height="137.7"/>
<rect x="356.2" y="375.6" class="st0" width="60.9" height="34.4"/>
<rect x="431.7" y="375.6" class="st10" width="71.5" height="8"/>
<rect x="431.7" y="388.8" class="st10" width="50.3" height="8"/>
<rect x="431.7" y="402.1" class="st10" width="71.5" height="8"/>
<rect x="356.2" y="415.3" class="st10" width="147" height="8"/>
<rect x="356.2" y="428.6" class="st10" width="147" height="8"/>
<rect x="356.2" y="441.8" class="st10" width="147" height="8"/>
<rect x="356.2" y="455" class="st10" width="135.1" height="8"/>
<rect x="356.2" y="468.3" class="st10" width="147" height="8"/>
<rect x="356.2" y="481.5" class="st10" width="147" height="8"/>
<rect x="539.6" y="363.7" class="st5" width="182.8" height="137.7"/>
<rect x="557.5" y="375.6" class="st0" width="60.9" height="34.4"/>
<rect x="633" y="375.6" class="st10" width="71.5" height="8"/>
<rect x="633" y="388.8" class="st10" width="50.3" height="8"/>
<rect x="633" y="402.1" class="st10" width="71.5" height="8"/>
<rect x="557.5" y="415.3" class="st10" width="147" height="8"/>
<rect x="557.5" y="428.6" class="st10" width="147" height="8"/>
<rect x="557.5" y="441.8" class="st10" width="147" height="8"/>
<rect x="557.5" y="455" class="st10" width="135.1" height="8"/>
<rect x="557.5" y="468.3" class="st10" width="147" height="8"/>
<rect x="557.5" y="481.5" class="st10" width="147" height="8"/>
<rect x="740.9" y="363.7" class="st11" width="182.8" height="137.7"/>
<linearGradient id="SVGID_2_" gradientUnits="userSpaceOnUse" x1="357.69" y1="1040.52" x2="357.69" y2="598.22" gradientTransform="matrix(1 0 0 1 -56.59 -343.12)">
	<stop  offset="0" style="stop-color:#808080;stop-opacity:0.25"/>
	<stop  offset="0.54" style="stop-color:#808080;stop-opacity:0.12"/>
	<stop  offset="1" style="stop-color:#808080;stop-opacity:0.1"/>
</linearGradient>
<path class="st12" d="M442.1,255.1h-282c-14.3,0-25.9,11.5-25.9,25.8l0,0v390.7c0,14.3,11.6,25.8,25.9,25.8l0,0h282
	c14.3,0,25.8-11.5,25.9-25.8l0,0V280.9C467.9,266.6,456.4,255.1,442.1,255.1L442.1,255.1z"/>
<path class="st8" d="M158.2,260.4H444c11,0,20,9,20,20v393.1c0,11-9,20-20,20H158.2c-11,0-20-9-20-20V280.4
	C138.2,269.3,147.1,260.4,158.2,260.4z"/>
<rect x="154.7" y="301.3" class="st9" width="292.7" height="351.1"/>
<circle class="st5" cx="299.7" cy="280.2" r="4"/>
<circle class="st5" cx="299.7" cy="672.2" r="11.9"/>
<rect x="167.4" y="337.2" class="st5" width="83.5" height="62.9"/>
<rect x="175.5" y="342.7" class="st0" width="27.8" height="15.7"/>
<rect x="210" y="342.7" class="st10" width="32.7" height="3.6"/>
<rect x="210" y="348.7" class="st10" width="23" height="3.6"/>
<rect x="210" y="354.8" class="st10" width="32.7" height="3.6"/>
<rect x="175.5" y="360.8" class="st10" width="67.2" height="3.6"/>
<rect x="175.5" y="366.9" class="st10" width="67.2" height="3.6"/>
<rect x="175.5" y="372.9" class="st10" width="67.2" height="3.6"/>
<rect x="175.5" y="379" class="st10" width="61.7" height="3.6"/>
<rect x="175.5" y="385" class="st10" width="67.2" height="3.6"/>
<rect x="175.5" y="391.1" class="st10" width="67.2" height="3.6"/>
<rect x="259.3" y="337.2" class="st5" width="83.5" height="62.9"/>
<rect x="267.5" y="342.7" class="st0" width="27.8" height="15.7"/>
<rect x="302" y="342.7" class="st10" width="32.7" height="3.6"/>
<rect x="302" y="348.7" class="st10" width="23" height="3.6"/>
<rect x="302" y="354.8" class="st10" width="32.7" height="3.6"/>
<rect x="267.5" y="360.8" class="st10" width="67.1" height="3.6"/>
<rect x="267.5" y="366.9" class="st10" width="67.1" height="3.6"/>
<rect x="267.5" y="372.9" class="st10" width="67.1" height="3.6"/>
<rect x="267.5" y="379" class="st10" width="61.7" height="3.6"/>
<rect x="267.5" y="385" class="st10" width="67.1" height="3.6"/>
<rect x="267.5" y="391.1" class="st10" width="67.1" height="3.6"/>
<rect x="351.3" y="337.2" class="st5" width="83.5" height="62.9"/>
<rect x="359.5" y="342.7" class="st0" width="27.8" height="15.7"/>
<rect x="393.9" y="342.7" class="st10" width="32.7" height="3.6"/>
<rect x="393.9" y="348.7" class="st10" width="23" height="3.6"/>
<rect x="393.9" y="354.8" class="st10" width="32.7" height="3.6"/>
<rect x="359.5" y="360.8" class="st10" width="67.1" height="3.6"/>
<rect x="359.5" y="366.9" class="st10" width="67.1" height="3.6"/>
<rect x="359.5" y="372.9" class="st10" width="67.1" height="3.6"/>
<rect x="359.5" y="379" class="st10" width="61.7" height="3.6"/>
<rect x="359.5" y="385" class="st10" width="67.1" height="3.6"/>
<rect x="359.5" y="391.1" class="st10" width="67.1" height="3.6"/>
<rect x="167.4" y="408" class="st5" width="83.5" height="62.9"/>
<rect x="175.5" y="413.4" class="st0" width="27.8" height="15.7"/>
<rect x="210" y="413.4" class="st10" width="32.7" height="3.6"/>
<rect x="210" y="419.5" class="st10" width="23" height="3.6"/>
<rect x="210" y="425.5" class="st10" width="32.7" height="3.6"/>
<rect x="175.5" y="431.6" class="st10" width="67.2" height="3.6"/>
<rect x="175.5" y="437.6" class="st10" width="67.2" height="3.6"/>
<rect x="175.5" y="443.7" class="st10" width="67.2" height="3.6"/>
<rect x="175.5" y="449.7" class="st10" width="61.7" height="3.6"/>
<rect x="175.5" y="455.8" class="st10" width="67.2" height="3.6"/>
<rect x="175.5" y="461.8" class="st10" width="67.2" height="3.6"/>
<rect x="259.3" y="408" class="st5" width="83.5" height="62.9"/>
<rect x="267.5" y="413.4" class="st0" width="27.8" height="15.7"/>
<rect x="302" y="413.4" class="st10" width="32.7" height="3.6"/>
<rect x="302" y="419.5" class="st10" width="23" height="3.6"/>
<rect x="302" y="425.5" class="st10" width="32.7" height="3.6"/>
<rect x="267.5" y="431.6" class="st10" width="67.1" height="3.6"/>
<rect x="267.5" y="437.6" class="st10" width="67.1" height="3.6"/>
<rect x="267.5" y="443.7" class="st10" width="67.1" height="3.6"/>
<rect x="267.5" y="449.7" class="st10" width="61.7" height="3.6"/>
<rect x="267.5" y="455.8" class="st10" width="67.1" height="3.6"/>
<rect x="267.5" y="461.8" class="st10" width="67.1" height="3.6"/>
<rect x="351.3" y="408" class="st5" width="83.5" height="62.9"/>
<rect x="359.5" y="413.4" class="st0" width="27.8" height="15.7"/>
<rect x="393.9" y="413.4" class="st10" width="32.7" height="3.6"/>
<rect x="393.9" y="419.5" class="st10" width="23" height="3.6"/>
<rect x="393.9" y="425.5" class="st10" width="32.7" height="3.6"/>
<rect x="359.5" y="431.6" class="st10" width="67.1" height="3.6"/>
<rect x="359.5" y="437.6" class="st10" width="67.1" height="3.6"/>
<rect x="359.5" y="443.7" class="st10" width="67.1" height="3.6"/>
<rect x="359.5" y="449.7" class="st10" width="61.7" height="3.6"/>
<rect x="359.5" y="455.8" class="st10" width="67.1" height="3.6"/>
<rect x="359.5" y="461.8" class="st10" width="67.1" height="3.6"/>
<rect x="167.4" y="481.6" class="st5" width="83.5" height="62.9"/>
<rect x="175.5" y="487" class="st0" width="27.8" height="15.7"/>
<rect x="210" y="487" class="st10" width="32.7" height="3.6"/>
<rect x="210" y="493.1" class="st10" width="23" height="3.6"/>
<rect x="210" y="499.1" class="st10" width="32.7" height="3.6"/>
<rect x="175.5" y="505.2" class="st10" width="67.2" height="3.6"/>
<rect x="175.5" y="511.2" class="st10" width="67.2" height="3.6"/>
<rect x="175.5" y="517.3" class="st10" width="67.2" height="3.6"/>
<rect x="175.5" y="523.3" class="st10" width="61.7" height="3.6"/>
<rect x="175.5" y="529.4" class="st10" width="67.2" height="3.6"/>
<rect x="175.5" y="535.4" class="st10" width="67.2" height="3.6"/>
<rect x="259.3" y="481.6" class="st5" width="83.5" height="62.9"/>
<rect x="267.5" y="487" class="st0" width="27.8" height="15.7"/>
<rect x="302" y="487" class="st10" width="32.7" height="3.6"/>
<rect x="302" y="493.1" class="st10" width="23" height="3.6"/>
<rect x="302" y="499.1" class="st10" width="32.7" height="3.6"/>
<rect x="267.5" y="505.2" class="st10" width="67.1" height="3.6"/>
<rect x="267.5" y="511.2" class="st10" width="67.1" height="3.6"/>
<rect x="267.5" y="517.3" class="st10" width="67.1" height="3.6"/>
<rect x="267.5" y="523.3" class="st10" width="61.7" height="3.6"/>
<rect x="267.5" y="529.4" class="st10" width="67.1" height="3.6"/>
<rect x="267.5" y="535.4" class="st10" width="67.1" height="3.6"/>
<rect x="351.3" y="481.6" class="st5" width="83.5" height="62.9"/>
<rect x="359.5" y="487" class="st0" width="27.8" height="15.7"/>
<rect x="393.9" y="487" class="st10" width="32.7" height="3.6"/>
<rect x="393.9" y="493.1" class="st10" width="23" height="3.6"/>
<rect x="393.9" y="499.1" class="st10" width="32.7" height="3.6"/>
<rect x="359.5" y="505.2" class="st10" width="67.1" height="3.6"/>
<rect x="359.5" y="511.2" class="st10" width="67.1" height="3.6"/>
<rect x="359.5" y="517.3" class="st10" width="67.1" height="3.6"/>
<rect x="359.5" y="523.3" class="st10" width="61.7" height="3.6"/>
<rect x="359.5" y="529.4" class="st10" width="67.1" height="3.6"/>
<rect x="359.5" y="535.4" class="st10" width="67.1" height="3.6"/>
<rect x="167.4" y="552.3" class="st5" width="83.5" height="62.9"/>
<rect x="175.5" y="557.8" class="st0" width="27.8" height="15.7"/>
<rect x="210" y="557.8" class="st10" width="32.7" height="3.6"/>
<rect x="210" y="563.8" class="st10" width="23" height="3.6"/>
<rect x="210" y="569.9" class="st10" width="32.7" height="3.6"/>
<rect x="175.5" y="576" class="st10" width="67.2" height="3.6"/>
<rect x="175.5" y="582" class="st10" width="67.2" height="3.6"/>
<rect x="175.5" y="588" class="st10" width="67.2" height="3.6"/>
<rect x="175.5" y="594.1" class="st10" width="61.7" height="3.6"/>
<rect x="175.5" y="600.2" class="st10" width="67.2" height="3.6"/>
<rect x="175.5" y="606.2" class="st10" width="67.2" height="3.6"/>
<rect x="259.3" y="552.3" class="st5" width="83.5" height="62.9"/>
<rect x="267.5" y="557.8" class="st0" width="27.8" height="15.7"/>
<rect x="302" y="557.8" class="st10" width="32.7" height="3.6"/>
<rect x="302" y="563.8" class="st10" width="23" height="3.6"/>
<rect x="302" y="569.9" class="st10" width="32.7" height="3.6"/>
<rect x="267.5" y="576" class="st10" width="67.1" height="3.6"/>
<rect x="267.5" y="582" class="st10" width="67.1" height="3.6"/>
<rect x="267.5" y="588" class="st10" width="67.1" height="3.6"/>
<rect x="267.5" y="594.1" class="st10" width="61.7" height="3.6"/>
<rect x="267.5" y="600.2" class="st10" width="67.1" height="3.6"/>
<rect x="267.5" y="606.2" class="st10" width="67.1" height="3.6"/>
<rect x="351.3" y="552.3" class="st11" width="83.5" height="62.9"/>
<linearGradient id="SVGID_3_" gradientUnits="userSpaceOnUse" x1="211.1922" y1="1076.3201" x2="211.1922" y2="730.62" gradientTransform="matrix(1 0 0 1 -56.59 -343.12)">
	<stop  offset="0" style="stop-color:#808080;stop-opacity:0.25"/>
	<stop  offset="0.54" style="stop-color:#808080;stop-opacity:0.12"/>
	<stop  offset="1" style="stop-color:#808080;stop-opacity:0.1"/>
</linearGradient>
<path class="st13" d="M227.1,387.5H82.3c-7.9,0-14.3,6.4-14.4,14.3l0,0v317.1c0,7.9,6.4,14.3,14.3,14.3l0,0H227
	c7.9,0,14.3-6.4,14.3-14.3l0,0V401.8C241.5,393.9,235,387.5,227.1,387.5L227.1,387.5z"/>
<path class="st8" d="M80.3,390.2h148.9c6.1,0,11,4.9,11,11v319.7c0,6.1-4.9,11-11,11H80.3c-6.1,0-11-4.9-11-11V401.2
	C69.3,395.1,74.2,390.2,80.3,390.2z"/>
<rect x="81.9" y="421.9" class="st9" width="145.7" height="278.1"/>
<circle class="st5" cx="137.5" cy="406" r="1.3"/>
<path class="st5" d="M145.1,404.7h27.1c0.6,0,1,0.4,1,1v0.6c0,0.6-0.4,1-1,1h-27.1c-0.6,0-1-0.4-1-1v-0.6
	C144.1,405.2,144.6,404.7,145.1,404.7z"/>
<circle class="st5" cx="154.1" cy="713.3" r="9.3"/>
<rect x="105.1" y="438.6" class="st11" width="99.3" height="74.9"/>
<rect x="105.1" y="522.8" class="st5" width="99.3" height="74.9"/>
<rect x="114.8" y="529.3" class="st0" width="33.1" height="18.7"/>
<rect x="155.8" y="529.3" class="st10" width="38.9" height="4.3"/>
<rect x="155.8" y="536.5" class="st10" width="27.4" height="4.3"/>
<rect x="155.8" y="543.7" class="st10" width="38.9" height="4.3"/>
<rect x="114.8" y="550.9" class="st10" width="79.9" height="4.3"/>
<rect x="114.8" y="558.1" class="st10" width="79.9" height="4.3"/>
<rect x="114.8" y="565.3" class="st10" width="79.9" height="4.3"/>
<rect x="114.8" y="572.5" class="st10" width="73.4" height="4.3"/>
<rect x="114.8" y="579.7" class="st10" width="79.9" height="4.3"/>
<rect x="114.8" y="586.9" class="st10" width="79.9" height="4.3"/>
<rect x="105.1" y="607.2" class="st5" width="99.3" height="74.9"/>
<rect x="114.8" y="613.7" class="st0" width="33.1" height="18.7"/>
<rect x="155.8" y="613.7" class="st10" width="38.9" height="4.3"/>
<rect x="155.8" y="620.9" class="st10" width="27.4" height="4.3"/>
<rect x="155.8" y="628.1" class="st10" width="38.9" height="4.3"/>
<rect x="114.8" y="635.3" class="st10" width="79.9" height="4.3"/>
<rect x="114.8" y="642.5" class="st10" width="79.9" height="4.3"/>
<rect x="114.8" y="649.7" class="st10" width="79.9" height="4.3"/>
<rect x="114.8" y="656.9" class="st10" width="73.4" height="4.3"/>
<rect x="114.8" y="664.1" class="st10" width="79.9" height="4.3"/>
<rect x="114.8" y="671.3" class="st10" width="79.9" height="4.3"/>
<path class="st14" d="M449.3,647.7c0,0-11.5-4.9-20.6-8.5s-3.6,8.5-3.6,8.5s15.2,4.2,15.2,4.9s12.8,1.2,12.8,1.2L449.3,647.7z"/>
<path class="st15" d="M449.3,647.7c0,0-11.5-4.9-20.6-8.5s-3.6,8.5-3.6,8.5s15.2,4.2,15.2,4.9s12.8,1.2,12.8,1.2L449.3,647.7z"/>
<linearGradient id="SVGID_4_" gradientUnits="userSpaceOnUse" x1="382.6" y1="913.85" x2="473.5" y2="913.85" gradientTransform="matrix(1 0 0 1 0 -288)">
	<stop  offset="0" style="stop-color:#808080;stop-opacity:0.25"/>
	<stop  offset="0.54" style="stop-color:#808080;stop-opacity:0.12"/>
	<stop  offset="1" style="stop-color:#808080;stop-opacity:0.1"/>
</linearGradient>
<rect x="382.6" y="591.6" class="st16" width="90.9" height="68.5"/>
<rect x="386.3" y="594.3" class="st5" width="83.5" height="62.9"/>
<rect x="394.5" y="599.8" class="st0" width="27.8" height="15.7"/>
<rect x="428.9" y="599.8" class="st10" width="32.7" height="3.6"/>
<rect x="428.9" y="605.8" class="st10" width="23" height="3.6"/>
<rect x="428.9" y="611.9" class="st10" width="32.7" height="3.6"/>
<rect x="394.5" y="618" class="st10" width="67.1" height="3.6"/>
<rect x="394.5" y="624" class="st10" width="67.1" height="3.6"/>
<rect x="394.5" y="630" class="st10" width="67.1" height="3.6"/>
<rect x="394.5" y="636.1" class="st10" width="61.7" height="3.6"/>
<rect x="394.5" y="642.2" class="st10" width="67.1" height="3.6"/>
<rect x="394.5" y="648.2" class="st10" width="67.1" height="3.6"/>
<path class="st17" d="M374.6,729.4c0,0.1,0,0.1-0.1,0.2c-0.4,1-0.8,2.1-1,3.2c0.1-0.5,0.3-1,0.5-1.5
	C374.3,730.7,374.5,730,374.6,729.4z"/>
<path class="st17" d="M316.9,733.2c-0.3,0.1-0.6,0.5-0.9,1.1h0.1c0.3-0.1,0.7-0.6,1.3-1.4C317.2,733.1,317,733.2,316.9,733.2z"/>
<path class="st11" d="M178.6,506.7l4.5,0.3v-11l-6-1.1C179.2,497.7,179.2,502.5,178.6,506.7z"/>
<linearGradient id="SVGID_5_" gradientUnits="userSpaceOnUse" x1="203.8" y1="804.5" x2="203.8" y2="725.6" gradientTransform="matrix(1 0 0 1 0 -288)">
	<stop  offset="0" style="stop-color:#808080;stop-opacity:0.25"/>
	<stop  offset="0.54" style="stop-color:#808080;stop-opacity:0.12"/>
	<stop  offset="1" style="stop-color:#808080;stop-opacity:0.1"/>
</linearGradient>
<rect x="151.4" y="437.6" class="st18" width="104.8" height="78.9"/>
<rect x="154.1" y="439.6" class="st5" width="99.3" height="74.9"/>
<rect x="163.8" y="446.1" class="st0" width="33.1" height="18.7"/>
<rect x="204.8" y="446.1" class="st10" width="38.9" height="4.3"/>
<rect x="204.8" y="453.3" class="st10" width="27.4" height="4.3"/>
<rect x="204.8" y="460.5" class="st10" width="38.9" height="4.3"/>
<rect x="163.8" y="467.7" class="st10" width="79.9" height="4.3"/>
<rect x="163.8" y="474.9" class="st10" width="79.9" height="4.3"/>
<rect x="163.8" y="482.1" class="st10" width="79.9" height="4.3"/>
<rect x="163.8" y="489.3" class="st10" width="73.4" height="4.3"/>
<rect x="163.8" y="496.5" class="st10" width="79.9" height="4.3"/>
<rect x="163.8" y="503.7" class="st10" width="79.9" height="4.3"/>
<path class="st2" d="M86.2,760.3c1.8-1.5,3.2-3.5,3.8-5.8c0.5-2.3-0.5-5-2.7-5.9c-2.5-0.9-5.1,0.8-7.1,2.5s-4.3,3.7-6.9,3.3
	c2.7-2.5,4-6.2,3.2-9.8c-0.1-0.7-0.4-1.4-0.9-2c-1.4-1.5-3.8-0.8-5.5,0.3c-5.2,3.7-6.6,10.7-6.7,17.1c-0.5-2.3-0.1-4.7-0.1-7
	s-0.7-5-2.6-6.2c-1.2-0.7-2.6-1-4-1c-2.3-0.1-4.9,0.2-6.5,1.9c-2,2.1-1.5,5.7,0.3,8s4.3,3.8,6.8,5.4c1.9,1.2,3.6,2.7,4.8,4.6
	c0.1,0.3,0.3,0.5,0.4,0.8h14.6C80.4,764.9,83.4,762.8,86.2,760.3z"/>
<path class="st2" d="M955.2,621.3c1.8-1.5,3.2-3.5,3.8-5.8c0.5-2.3-0.5-5-2.7-5.9c-2.5-0.9-5.1,0.8-7.1,2.5s-4.3,3.7-6.9,3.3
	c2.7-2.5,4-6.2,3.2-9.8c-0.1-0.7-0.4-1.4-0.9-2c-1.4-1.5-3.8-0.8-5.5,0.3c-5.2,3.7-6.7,10.7-6.7,17.1c-0.5-2.3-0.1-4.7-0.1-7
	s-0.7-5-2.6-6.2c-1.2-0.7-2.6-1-4-1c-2.3-0.1-4.9,0.2-6.5,1.9c-2,2.1-1.5,5.7,0.3,8s4.3,3.8,6.8,5.4c1.9,1.2,3.6,2.7,4.8,4.6
	c0.1,0.3,0.3,0.5,0.4,0.8h14.7C949.4,625.9,952.5,623.8,955.2,621.3z"/>
<path class="st19" d="M1003.9,382.5c0,0-40.7,5.7-49.2,4L932,365c0,0-21.5,16.4,12.5,27.1l63.4,7.4L1003.9,382.5z"/>
<path class="st15" d="M1003.9,382.5c0,0-40.7,5.7-49.2,4L932,365c0,0-21.5,16.4,12.5,27.1l63.4,7.4L1003.9,382.5z"/>
<linearGradient id="SVGID_6_" gradientUnits="userSpaceOnUse" x1="917.25" y1="732.6" x2="917.25" y2="588.4" gradientTransform="matrix(1 0 0 1 0 -288)">
	<stop  offset="0" style="stop-color:#808080;stop-opacity:0.25"/>
	<stop  offset="0.54" style="stop-color:#808080;stop-opacity:0.12"/>
	<stop  offset="1" style="stop-color:#808080;stop-opacity:0.1"/>
</linearGradient>
<rect x="821.6" y="300.4" class="st20" width="191.3" height="144.2"/>
<rect x="825.9" y="303.7" class="st5" width="182.8" height="137.7"/>
<rect x="843.8" y="315.6" class="st0" width="60.9" height="34.4"/>
<rect x="919.3" y="315.6" class="st10" width="71.5" height="8"/>
<rect x="919.3" y="328.8" class="st10" width="50.3" height="8"/>
<rect x="919.3" y="342.1" class="st10" width="71.5" height="8"/>
<rect x="843.8" y="355.3" class="st10" width="147" height="8"/>
<rect x="843.8" y="368.6" class="st10" width="147" height="8"/>
<rect x="843.8" y="381.8" class="st10" width="147" height="8"/>
<rect x="843.8" y="395" class="st10" width="135.1" height="8"/>
<rect x="843.8" y="408.3" class="st10" width="147" height="8"/>
<rect x="843.8" y="421.5" class="st10" width="147" height="8"/>
</svg>
